M48
;GenerationSoftware,Autodesk,EAGLE,9.6.2*%
;CreationDate,2021-08-10T06:19:50Z*%
FMAT,2
ICI,OFF
METRIC,TZ,000.000
T6C0.350
T5C0.700
T4C0.813
T3C1.016
T2C1.100
T1C2.032
%
G90
M71
T1
X12800Y4445
X1700Y4445
X7000Y4445
X12800Y22225
X1700Y22225
X7000Y22225
T2
X5080Y70445
X5080Y67945
X5080Y65445
X5080Y45045
X5080Y42545
X5080Y40045
X5080Y95845
X5080Y93345
X5080Y90845
T3
X43180Y82550
X43180Y85090
X43180Y87630
X45720Y82550
X45720Y85090
X45720Y87630
X17780Y93345
X12700Y93345
T4
X34290Y40005
X26670Y47625
X26670Y45085
X26670Y42545
X26670Y40005
X26670Y37465
X26670Y34925
X26670Y32385
X26670Y29845
X34290Y59055
X34290Y61595
X34290Y74295
X26670Y74295
X34290Y64135
X34290Y66675
X34290Y71755
X34290Y69215
X26670Y71755
X26670Y69215
X26670Y66675
X26670Y64135
X26670Y61595
X26670Y59055
X33020Y22225
X27940Y22225
X25400Y22225
X33020Y26670
X27940Y26670
X27940Y50800
X33020Y50800
X33020Y96520
X12700Y85725
X20320Y85725
X27940Y77470
X33020Y77470
X41910Y73660
X46990Y73660
X44450Y73660
X41910Y66675
X46990Y66675
X44450Y69215
X44450Y66675
X34290Y42545
X34290Y37465
X34290Y34925
X34290Y47625
X34290Y45085
X34290Y32385
X34290Y29845
X27940Y96520
X27940Y82550
X33020Y82550
X27940Y55880
X33020Y55880
X12700Y83185
X48895Y79375
X41275Y79375
X20320Y80645
X12700Y80645
X20320Y83185
X35560Y22225
X20320Y61595
X12700Y61595
X20320Y66675
X12700Y66675
X20320Y59055
X12700Y59055
X12700Y64135
X20320Y64135
X40640Y61595
X48260Y61595
X40640Y59055
X48260Y59055
X48260Y56515
X40640Y56515
X48260Y53975
X40640Y53975
X12700Y29845
X20320Y29845
X22860Y97155
X22860Y89535
X20320Y37465
X12700Y37465
X40640Y37465
X48260Y37465
X20320Y40005
X12700Y40005
X40640Y40005
X48260Y40005
X19050Y76835
X13970Y76835
X16510Y76835
X12700Y69215
X20320Y69215
X48260Y29845
X40640Y29845
X20320Y71755
X12700Y71755
X20320Y45085
X12700Y45085
X40640Y45085
X48260Y45085
X40640Y34925
X48260Y34925
X20320Y34925
X12700Y34925
X20320Y42545
X12700Y42545
X12700Y32385
X20320Y32385
X48260Y42545
X40640Y42545
X37465Y94615
X40005Y94615
X35560Y81280
X38100Y81280
X41275Y90805
X48895Y90805
X40640Y47625
X48260Y47625
T5
X26670Y85725
X26670Y88265
X26670Y90805
X26670Y93345
X34290Y93345
X34290Y90805
X34290Y88265
X34290Y85725
T6
X36830Y53975
X23495Y70485
X30480Y73025
X23495Y83185
X31750Y84455
X44450Y42545
X31750Y80645
X31750Y65405
X30480Y86995
X38100Y36195
X43180Y76835
X36830Y45085
X30480Y89535
X30480Y47625
X39370Y78105
X29210Y67945
M30