M48
;GenerationSoftware,Autodesk,EAGLE,9.6.2*%
;CreationDate,2021-06-15T10:29:39Z*%
FMAT,2
ICI,OFF
METRIC,TZ,000.000
T5C0.350
T4C0.813
T3C0.914
T2C1.016
T1C1.200
%
G90
M71
T1
X7540Y42465
X2540Y32465
X2540Y37465
X2540Y42465
X7540Y57865
X7540Y62865
X7540Y67865
X2540Y57865
X2540Y62865
X2540Y67865
X7540Y37465
X7540Y32465
X2540Y17065
X2540Y12065
X2540Y7065
X7540Y17065
X7540Y12065
X7540Y7065
T2
X50800Y57785
X50800Y60325
X53340Y55245
X53340Y57785
X53340Y60325
X50800Y55245
X40640Y40005
X45720Y40005
X26670Y3175
X26670Y8255
X45720Y8890
X43180Y8890
X40640Y8890
T3
X52070Y26035
X54610Y26035
X52070Y23495
X54610Y23495
X52070Y20955
X54610Y20955
X52070Y18415
X54610Y18415
X52070Y15875
X54610Y15875
T4
X26670Y47625
X26670Y50165
X26670Y52705
X26670Y55245
X26670Y57785
X26670Y60325
X34290Y57785
X34290Y60325
X34290Y17145
X34290Y19685
X34290Y32385
X26670Y32385
X34290Y22225
X34290Y24765
X34290Y29845
X34290Y27305
X26670Y29845
X26670Y27305
X26670Y24765
X26670Y22225
X26670Y19685
X26670Y17145
X46990Y47625
X39370Y47625
X13970Y57785
X21590Y57785
X39370Y60325
X46990Y60325
X34290Y55245
X34290Y52705
X26670Y62865
X34290Y62865
X34290Y50165
X34290Y47625
X33020Y13335
X27940Y13335
X52070Y4445
X33020Y36195
X33020Y43815
X27940Y43815
X27940Y66675
X33020Y66675
X45720Y57785
X40640Y57785
X20320Y14605
X15240Y14605
X13970Y12065
X21590Y12065
X39370Y62865
X46990Y62865
X21590Y42545
X13970Y42545
X39370Y19685
X46990Y19685
X15240Y38735
X20320Y38735
X40640Y22225
X45720Y22225
X54610Y4445
X52070Y37465
X39370Y29845
X46990Y29845
X39370Y32385
X46990Y32385
X46990Y17145
X39370Y17145
X21590Y60325
X13970Y60325
X13970Y62865
X21590Y62865
X21590Y50165
X13970Y50165
X21590Y47625
X13970Y47625
X21590Y29845
X13970Y29845
X13970Y27305
X21590Y27305
X21590Y32385
X13970Y32385
X21590Y19685
X13970Y19685
X21590Y17145
X13970Y17145
X46990Y14605
X39370Y14605
X54610Y37465
X27940Y36195
X20320Y22225
X15240Y22225
X20320Y9525
X15240Y9525
X15240Y34925
X20320Y34925
X20320Y45085
X15240Y45085
T5
X38100Y32385
X36830Y40005
X30480Y12065
X30480Y19685
X45720Y28575
X16510Y28575
X12700Y23495
X12700Y34925
X44450Y45720
X24130Y45720
X24130Y38735
X49530Y5715
X11430Y27305
X11430Y29845
X24130Y32385
X16510Y10795
X29210Y26035
M30