G04 EAGLE Gerber RS-274X export*
G75*
%MOMM*%
%FSLAX34Y34*%
%LPD*%
%INSoldermask Bottom*%
%IPPOS*%
%AMOC8*
5,1,8,0,0,1.08239X$1,22.5*%
G01*
%ADD10C,1.524000*%
%ADD11C,2.387600*%
%ADD12P,1.649562X8X202.500000*%
%ADD13P,1.649562X8X22.500000*%
%ADD14P,1.869504X8X292.500000*%
%ADD15C,2.743200*%
%ADD16P,2.969212X8X22.500000*%
%ADD17P,2.969212X8X112.500000*%
%ADD18C,1.727200*%
%ADD19P,1.759533X8X292.500000*%
%ADD20P,1.951982X8X22.500000*%
%ADD21C,1.803400*%
%ADD22C,0.959600*%


D10*
X349504Y476250D02*
X336296Y476250D01*
X336296Y501650D02*
X349504Y501650D01*
X349504Y628650D02*
X336296Y628650D01*
X273304Y628650D02*
X260096Y628650D01*
X336296Y527050D02*
X349504Y527050D01*
X349504Y552450D02*
X336296Y552450D01*
X336296Y603250D02*
X349504Y603250D01*
X349504Y577850D02*
X336296Y577850D01*
X273304Y603250D02*
X260096Y603250D01*
X260096Y577850D02*
X273304Y577850D01*
X273304Y552450D02*
X260096Y552450D01*
X260096Y527050D02*
X273304Y527050D01*
X273304Y501650D02*
X260096Y501650D01*
X260096Y476250D02*
X273304Y476250D01*
D11*
X25400Y678650D03*
X25400Y628650D03*
X25400Y578650D03*
X75400Y678650D03*
X75400Y628650D03*
X75400Y578650D03*
X25400Y424650D03*
X25400Y374650D03*
X25400Y324650D03*
X75400Y424650D03*
X75400Y374650D03*
X75400Y324650D03*
X25400Y170650D03*
X25400Y120650D03*
X25400Y70650D03*
X75400Y170650D03*
X75400Y120650D03*
X75400Y70650D03*
D10*
X336296Y171450D02*
X349504Y171450D01*
X349504Y196850D02*
X336296Y196850D01*
X336296Y323850D02*
X349504Y323850D01*
X273304Y323850D02*
X260096Y323850D01*
X336296Y222250D02*
X349504Y222250D01*
X349504Y247650D02*
X336296Y247650D01*
X336296Y298450D02*
X349504Y298450D01*
X349504Y273050D02*
X336296Y273050D01*
X273304Y298450D02*
X260096Y298450D01*
X260096Y273050D02*
X273304Y273050D01*
X273304Y247650D02*
X260096Y247650D01*
X260096Y222250D02*
X273304Y222250D01*
X273304Y196850D02*
X260096Y196850D01*
X260096Y171450D02*
X273304Y171450D01*
D12*
X469900Y476250D03*
X393700Y476250D03*
D13*
X139700Y577850D03*
X215900Y577850D03*
X393700Y603250D03*
X469900Y603250D03*
D14*
X533400Y603250D03*
X533400Y577850D03*
X533400Y552450D03*
X508000Y603250D03*
X508000Y577850D03*
X508000Y552450D03*
D12*
X330200Y133350D03*
X279400Y133350D03*
D13*
X279400Y361950D03*
X330200Y361950D03*
D12*
X330200Y438150D03*
X279400Y438150D03*
D13*
X279400Y666750D03*
X330200Y666750D03*
D12*
X457200Y577850D03*
X406400Y577850D03*
X203200Y146050D03*
X152400Y146050D03*
D13*
X139700Y120650D03*
X215900Y120650D03*
X393700Y628650D03*
X469900Y628650D03*
D12*
X215900Y425450D03*
X139700Y425450D03*
D13*
X393700Y196850D03*
X469900Y196850D03*
X152400Y387350D03*
X203200Y387350D03*
X406400Y222250D03*
X457200Y222250D03*
D15*
X406400Y400050D03*
D16*
X457200Y400050D03*
D13*
X393700Y298450D03*
X469900Y298450D03*
X393700Y323850D03*
X469900Y323850D03*
D12*
X469900Y171450D03*
X393700Y171450D03*
X215900Y603250D03*
X139700Y603250D03*
D13*
X139700Y628650D03*
X215900Y628650D03*
D12*
X215900Y501650D03*
X139700Y501650D03*
X215900Y476250D03*
X139700Y476250D03*
X215900Y298450D03*
X139700Y298450D03*
D13*
X139700Y273050D03*
X215900Y273050D03*
D12*
X215900Y323850D03*
X139700Y323850D03*
X215900Y196850D03*
X139700Y196850D03*
X215900Y171450D03*
X139700Y171450D03*
X469900Y146050D03*
X393700Y146050D03*
D15*
X266700Y31750D03*
D17*
X266700Y82550D03*
D12*
X203200Y222250D03*
X152400Y222250D03*
X203200Y95250D03*
X152400Y95250D03*
D13*
X152400Y349250D03*
X203200Y349250D03*
D12*
X203200Y450850D03*
X152400Y450850D03*
D18*
X457200Y96520D02*
X457200Y81280D01*
X431800Y81280D02*
X431800Y96520D01*
X406400Y96520D02*
X406400Y81280D01*
D19*
X520700Y260350D03*
X546100Y260350D03*
X520700Y234950D03*
X546100Y234950D03*
X520700Y209550D03*
X546100Y209550D03*
X520700Y184150D03*
X546100Y184150D03*
X520700Y158750D03*
X546100Y158750D03*
D20*
X546100Y374650D03*
D21*
X520700Y374650D03*
D20*
X546100Y44450D03*
D21*
X520700Y44450D03*
D22*
X292100Y260350D03*
X495300Y57150D03*
X241300Y387350D03*
X241300Y457200D03*
X444500Y457200D03*
X127000Y349250D03*
X127000Y234950D03*
X165100Y285750D03*
X457200Y285750D03*
X304800Y196850D03*
X304800Y120650D03*
X368300Y400050D03*
X381000Y323850D03*
X114300Y273050D03*
X114300Y298450D03*
X241300Y323850D03*
X165100Y107950D03*
M02*
