G04 EAGLE Gerber RS-274X export*
G75*
%MOMM*%
%FSLAX34Y34*%
%LPD*%
%INTop Copper*%
%IPPOS*%
%AMOC8*
5,1,8,0,0,1.08239X$1,22.5*%
G01*
%ADD10C,1.524000*%
%ADD11C,1.650000*%
%ADD12C,0.609600*%

G36*
X41771Y10162D02*
X41771Y10162D01*
X41780Y10161D01*
X41972Y10182D01*
X42162Y10201D01*
X42171Y10203D01*
X42180Y10204D01*
X42362Y10262D01*
X42547Y10319D01*
X42555Y10323D01*
X42564Y10326D01*
X42732Y10419D01*
X42901Y10511D01*
X42908Y10516D01*
X42916Y10521D01*
X43064Y10646D01*
X43211Y10768D01*
X43216Y10775D01*
X43223Y10781D01*
X43343Y10933D01*
X43463Y11082D01*
X43467Y11090D01*
X43473Y11097D01*
X43560Y11270D01*
X43649Y11439D01*
X43651Y11448D01*
X43655Y11456D01*
X43707Y11641D01*
X43760Y11826D01*
X43761Y11835D01*
X43763Y11844D01*
X43777Y12036D01*
X43793Y12228D01*
X43792Y12236D01*
X43792Y12245D01*
X43769Y12434D01*
X43746Y12627D01*
X43743Y12636D01*
X43742Y12645D01*
X43681Y12826D01*
X43621Y13010D01*
X43617Y13018D01*
X43614Y13026D01*
X43518Y13194D01*
X43423Y13361D01*
X43417Y13368D01*
X43413Y13375D01*
X43198Y13628D01*
X42513Y14313D01*
X41025Y17906D01*
X41025Y21794D01*
X42513Y25387D01*
X45263Y28137D01*
X48856Y29625D01*
X52744Y29625D01*
X56337Y28137D01*
X59174Y25300D01*
X59182Y25285D01*
X59299Y25150D01*
X59413Y25012D01*
X59430Y24997D01*
X59445Y24980D01*
X59587Y24871D01*
X59726Y24758D01*
X59745Y24747D01*
X59763Y24734D01*
X59923Y24654D01*
X60082Y24571D01*
X60104Y24564D01*
X60124Y24554D01*
X60297Y24508D01*
X60468Y24458D01*
X60491Y24456D01*
X60513Y24450D01*
X60843Y24423D01*
X67915Y24423D01*
X67941Y24425D01*
X67968Y24423D01*
X68142Y24445D01*
X68315Y24463D01*
X68341Y24470D01*
X68367Y24474D01*
X68533Y24529D01*
X68700Y24581D01*
X68724Y24594D01*
X68749Y24602D01*
X68901Y24689D01*
X69054Y24773D01*
X69075Y24790D01*
X69098Y24803D01*
X69351Y25018D01*
X83732Y39399D01*
X83749Y39420D01*
X83770Y39437D01*
X83877Y39575D01*
X83987Y39711D01*
X84000Y39734D01*
X84016Y39755D01*
X84094Y39912D01*
X84176Y40066D01*
X84184Y40092D01*
X84196Y40116D01*
X84241Y40285D01*
X84291Y40452D01*
X84293Y40479D01*
X84300Y40505D01*
X84327Y40835D01*
X84327Y160979D01*
X84325Y161005D01*
X84327Y161032D01*
X84305Y161206D01*
X84287Y161379D01*
X84280Y161405D01*
X84276Y161432D01*
X84220Y161597D01*
X84169Y161764D01*
X84156Y161788D01*
X84148Y161813D01*
X84061Y161964D01*
X83977Y162118D01*
X83960Y162139D01*
X83947Y162162D01*
X83732Y162415D01*
X81147Y165000D01*
X79755Y168361D01*
X79755Y187239D01*
X81147Y190600D01*
X83720Y193173D01*
X87081Y194565D01*
X90719Y194565D01*
X94080Y193173D01*
X96653Y190600D01*
X98045Y187239D01*
X98045Y168361D01*
X96653Y165000D01*
X94068Y162415D01*
X94051Y162394D01*
X94030Y162377D01*
X93923Y162239D01*
X93813Y162104D01*
X93800Y162080D01*
X93784Y162059D01*
X93706Y161902D01*
X93624Y161748D01*
X93616Y161722D01*
X93604Y161698D01*
X93559Y161529D01*
X93509Y161362D01*
X93507Y161335D01*
X93500Y161309D01*
X93473Y160979D01*
X93473Y37190D01*
X92777Y35510D01*
X73240Y15973D01*
X71560Y15277D01*
X60843Y15277D01*
X60821Y15275D01*
X60798Y15277D01*
X60621Y15255D01*
X60443Y15237D01*
X60421Y15231D01*
X60399Y15228D01*
X60229Y15172D01*
X60058Y15119D01*
X60038Y15108D01*
X60017Y15101D01*
X59861Y15013D01*
X59704Y14927D01*
X59686Y14913D01*
X59667Y14902D01*
X59532Y14784D01*
X59394Y14670D01*
X59380Y14652D01*
X59363Y14637D01*
X59254Y14495D01*
X59194Y14420D01*
X58402Y13628D01*
X58396Y13621D01*
X58389Y13616D01*
X58270Y13467D01*
X58147Y13317D01*
X58143Y13309D01*
X58137Y13302D01*
X58049Y13132D01*
X57958Y12961D01*
X57956Y12952D01*
X57951Y12945D01*
X57898Y12760D01*
X57843Y12575D01*
X57843Y12566D01*
X57840Y12558D01*
X57824Y12367D01*
X57807Y12174D01*
X57808Y12165D01*
X57807Y12156D01*
X57829Y11967D01*
X57850Y11774D01*
X57853Y11765D01*
X57854Y11757D01*
X57914Y11574D01*
X57972Y11390D01*
X57976Y11382D01*
X57979Y11374D01*
X58074Y11206D01*
X58167Y11038D01*
X58172Y11031D01*
X58177Y11023D01*
X58303Y10877D01*
X58427Y10731D01*
X58434Y10725D01*
X58440Y10718D01*
X58593Y10600D01*
X58743Y10481D01*
X58751Y10477D01*
X58758Y10472D01*
X58930Y10386D01*
X59102Y10299D01*
X59111Y10296D01*
X59119Y10292D01*
X59304Y10243D01*
X59490Y10191D01*
X59499Y10190D01*
X59507Y10188D01*
X59838Y10161D01*
X168762Y10161D01*
X168771Y10162D01*
X168780Y10161D01*
X168972Y10182D01*
X169162Y10201D01*
X169171Y10203D01*
X169180Y10204D01*
X169362Y10262D01*
X169547Y10319D01*
X169555Y10323D01*
X169564Y10326D01*
X169732Y10419D01*
X169901Y10511D01*
X169908Y10516D01*
X169916Y10521D01*
X170064Y10646D01*
X170211Y10768D01*
X170216Y10775D01*
X170223Y10781D01*
X170343Y10933D01*
X170463Y11082D01*
X170467Y11090D01*
X170473Y11097D01*
X170560Y11270D01*
X170649Y11439D01*
X170651Y11448D01*
X170655Y11456D01*
X170707Y11641D01*
X170760Y11826D01*
X170761Y11835D01*
X170763Y11844D01*
X170777Y12036D01*
X170793Y12228D01*
X170792Y12236D01*
X170792Y12245D01*
X170769Y12434D01*
X170746Y12627D01*
X170743Y12636D01*
X170742Y12645D01*
X170681Y12826D01*
X170621Y13010D01*
X170617Y13018D01*
X170614Y13026D01*
X170518Y13194D01*
X170423Y13361D01*
X170417Y13368D01*
X170413Y13375D01*
X170198Y13628D01*
X169426Y14400D01*
X169418Y14415D01*
X169301Y14550D01*
X169187Y14688D01*
X169170Y14703D01*
X169155Y14720D01*
X169013Y14829D01*
X168874Y14942D01*
X168855Y14953D01*
X168837Y14966D01*
X168677Y15046D01*
X168518Y15129D01*
X168496Y15136D01*
X168476Y15146D01*
X168303Y15192D01*
X168132Y15242D01*
X168109Y15244D01*
X168087Y15250D01*
X167757Y15277D01*
X157040Y15277D01*
X155360Y15973D01*
X135823Y35510D01*
X135127Y37190D01*
X135127Y160979D01*
X135125Y161005D01*
X135127Y161032D01*
X135105Y161206D01*
X135087Y161379D01*
X135080Y161405D01*
X135076Y161432D01*
X135020Y161597D01*
X134969Y161764D01*
X134956Y161788D01*
X134948Y161813D01*
X134861Y161964D01*
X134777Y162118D01*
X134760Y162139D01*
X134747Y162162D01*
X134532Y162415D01*
X131947Y165000D01*
X130555Y168361D01*
X130555Y187239D01*
X131947Y190600D01*
X134520Y193173D01*
X137881Y194565D01*
X141519Y194565D01*
X144880Y193173D01*
X147453Y190600D01*
X148845Y187239D01*
X148845Y168361D01*
X147453Y165000D01*
X144868Y162415D01*
X144851Y162394D01*
X144830Y162377D01*
X144723Y162239D01*
X144613Y162104D01*
X144600Y162080D01*
X144584Y162059D01*
X144506Y161902D01*
X144424Y161748D01*
X144416Y161722D01*
X144404Y161698D01*
X144359Y161529D01*
X144309Y161362D01*
X144307Y161335D01*
X144300Y161309D01*
X144273Y160979D01*
X144273Y40835D01*
X144275Y40809D01*
X144273Y40782D01*
X144295Y40608D01*
X144313Y40435D01*
X144320Y40409D01*
X144324Y40383D01*
X144379Y40217D01*
X144431Y40050D01*
X144444Y40026D01*
X144452Y40001D01*
X144539Y39849D01*
X144623Y39696D01*
X144640Y39675D01*
X144653Y39652D01*
X144868Y39399D01*
X159249Y25018D01*
X159270Y25001D01*
X159287Y24980D01*
X159425Y24873D01*
X159561Y24763D01*
X159584Y24750D01*
X159605Y24734D01*
X159762Y24656D01*
X159916Y24574D01*
X159942Y24566D01*
X159966Y24554D01*
X160135Y24509D01*
X160302Y24459D01*
X160329Y24457D01*
X160355Y24450D01*
X160685Y24423D01*
X167757Y24423D01*
X167779Y24425D01*
X167802Y24423D01*
X167979Y24445D01*
X168157Y24463D01*
X168179Y24469D01*
X168201Y24472D01*
X168371Y24528D01*
X168542Y24581D01*
X168562Y24592D01*
X168583Y24599D01*
X168739Y24687D01*
X168896Y24773D01*
X168914Y24787D01*
X168933Y24798D01*
X169068Y24916D01*
X169206Y25030D01*
X169220Y25048D01*
X169237Y25063D01*
X169346Y25205D01*
X169406Y25280D01*
X172263Y28137D01*
X175856Y29625D01*
X179744Y29625D01*
X183337Y28137D01*
X186087Y25387D01*
X187575Y21794D01*
X187575Y17906D01*
X186087Y14313D01*
X185402Y13628D01*
X185396Y13621D01*
X185389Y13616D01*
X185270Y13467D01*
X185147Y13317D01*
X185143Y13309D01*
X185137Y13302D01*
X185049Y13132D01*
X184958Y12961D01*
X184956Y12952D01*
X184951Y12945D01*
X184898Y12760D01*
X184843Y12575D01*
X184843Y12566D01*
X184840Y12558D01*
X184824Y12367D01*
X184807Y12174D01*
X184808Y12165D01*
X184807Y12156D01*
X184829Y11967D01*
X184850Y11774D01*
X184853Y11765D01*
X184854Y11757D01*
X184914Y11574D01*
X184972Y11390D01*
X184976Y11382D01*
X184979Y11374D01*
X185074Y11206D01*
X185167Y11038D01*
X185172Y11031D01*
X185177Y11023D01*
X185303Y10877D01*
X185427Y10731D01*
X185434Y10725D01*
X185440Y10718D01*
X185593Y10600D01*
X185743Y10481D01*
X185751Y10477D01*
X185758Y10472D01*
X185930Y10386D01*
X186102Y10299D01*
X186111Y10296D01*
X186119Y10292D01*
X186304Y10243D01*
X186490Y10191D01*
X186499Y10190D01*
X186507Y10188D01*
X186838Y10161D01*
X216408Y10161D01*
X216426Y10163D01*
X216444Y10161D01*
X216626Y10182D01*
X216809Y10201D01*
X216826Y10206D01*
X216843Y10208D01*
X217018Y10265D01*
X217194Y10319D01*
X217209Y10327D01*
X217226Y10333D01*
X217386Y10423D01*
X217548Y10511D01*
X217561Y10522D01*
X217577Y10531D01*
X217716Y10651D01*
X217857Y10768D01*
X217868Y10782D01*
X217882Y10794D01*
X217994Y10939D01*
X218109Y11082D01*
X218117Y11098D01*
X218128Y11112D01*
X218210Y11277D01*
X218295Y11439D01*
X218300Y11456D01*
X218308Y11472D01*
X218355Y11651D01*
X218406Y11826D01*
X218408Y11844D01*
X218412Y11861D01*
X218439Y12192D01*
X218439Y210058D01*
X218437Y210076D01*
X218439Y210094D01*
X218418Y210276D01*
X218399Y210459D01*
X218394Y210476D01*
X218392Y210493D01*
X218335Y210668D01*
X218281Y210844D01*
X218273Y210859D01*
X218267Y210876D01*
X218177Y211036D01*
X218089Y211198D01*
X218078Y211211D01*
X218069Y211227D01*
X217949Y211366D01*
X217832Y211507D01*
X217818Y211518D01*
X217806Y211532D01*
X217661Y211644D01*
X217518Y211759D01*
X217502Y211767D01*
X217488Y211778D01*
X217323Y211860D01*
X217161Y211945D01*
X217144Y211950D01*
X217128Y211958D01*
X216949Y212005D01*
X216774Y212056D01*
X216756Y212058D01*
X216739Y212062D01*
X216408Y212089D01*
X12192Y212089D01*
X12174Y212087D01*
X12156Y212089D01*
X11974Y212068D01*
X11791Y212049D01*
X11774Y212044D01*
X11757Y212042D01*
X11582Y211985D01*
X11406Y211931D01*
X11391Y211923D01*
X11374Y211917D01*
X11214Y211827D01*
X11052Y211739D01*
X11039Y211728D01*
X11023Y211719D01*
X10884Y211599D01*
X10743Y211482D01*
X10732Y211468D01*
X10718Y211456D01*
X10606Y211311D01*
X10491Y211168D01*
X10483Y211152D01*
X10472Y211138D01*
X10390Y210973D01*
X10305Y210811D01*
X10300Y210794D01*
X10292Y210778D01*
X10245Y210599D01*
X10194Y210424D01*
X10192Y210406D01*
X10188Y210389D01*
X10161Y210058D01*
X10161Y12192D01*
X10163Y12174D01*
X10161Y12156D01*
X10182Y11974D01*
X10201Y11791D01*
X10206Y11774D01*
X10208Y11757D01*
X10265Y11582D01*
X10319Y11406D01*
X10327Y11391D01*
X10333Y11374D01*
X10423Y11214D01*
X10511Y11052D01*
X10522Y11039D01*
X10531Y11023D01*
X10651Y10884D01*
X10768Y10743D01*
X10782Y10732D01*
X10794Y10718D01*
X10939Y10606D01*
X11082Y10491D01*
X11098Y10483D01*
X11112Y10472D01*
X11277Y10390D01*
X11439Y10305D01*
X11456Y10300D01*
X11472Y10292D01*
X11651Y10245D01*
X11826Y10194D01*
X11844Y10192D01*
X11861Y10188D01*
X12192Y10161D01*
X41762Y10161D01*
X41771Y10162D01*
G37*
%LPC*%
G36*
X22800Y41849D02*
X22800Y41849D01*
X22799Y41850D01*
X22799Y97850D01*
X22800Y97851D01*
X40079Y97851D01*
X40093Y97852D01*
X40106Y97851D01*
X40292Y97872D01*
X40480Y97891D01*
X40493Y97895D01*
X40506Y97896D01*
X40684Y97953D01*
X40865Y98009D01*
X40877Y98015D01*
X40889Y98019D01*
X41053Y98111D01*
X41219Y98201D01*
X41229Y98209D01*
X41241Y98216D01*
X41384Y98339D01*
X41528Y98458D01*
X41536Y98469D01*
X41547Y98477D01*
X41663Y98626D01*
X41780Y98772D01*
X41786Y98784D01*
X41795Y98794D01*
X41880Y98964D01*
X41966Y99129D01*
X41969Y99142D01*
X41976Y99154D01*
X42025Y99336D01*
X42077Y99516D01*
X42078Y99530D01*
X42082Y99543D01*
X42095Y99730D01*
X42110Y99918D01*
X42109Y99931D01*
X42109Y99944D01*
X42085Y100132D01*
X42063Y100317D01*
X42059Y100330D01*
X42057Y100343D01*
X41956Y100659D01*
X41025Y102906D01*
X41025Y106794D01*
X42513Y110387D01*
X45263Y113137D01*
X48856Y114625D01*
X52744Y114625D01*
X56337Y113137D01*
X59087Y110387D01*
X60575Y106794D01*
X60575Y102906D01*
X59644Y100659D01*
X59640Y100646D01*
X59634Y100635D01*
X59582Y100455D01*
X59528Y100274D01*
X59526Y100261D01*
X59523Y100248D01*
X59507Y100060D01*
X59490Y99873D01*
X59491Y99860D01*
X59490Y99846D01*
X59512Y99660D01*
X59531Y99473D01*
X59535Y99460D01*
X59537Y99447D01*
X59595Y99267D01*
X59651Y99088D01*
X59657Y99077D01*
X59662Y99064D01*
X59754Y98900D01*
X59844Y98735D01*
X59853Y98725D01*
X59860Y98713D01*
X59982Y98571D01*
X60104Y98427D01*
X60114Y98419D01*
X60123Y98408D01*
X60271Y98294D01*
X60418Y98176D01*
X60430Y98170D01*
X60441Y98162D01*
X60609Y98078D01*
X60776Y97992D01*
X60789Y97988D01*
X60801Y97982D01*
X60984Y97933D01*
X61164Y97882D01*
X61177Y97881D01*
X61190Y97878D01*
X61521Y97851D01*
X78800Y97851D01*
X78801Y97850D01*
X78801Y41850D01*
X78800Y41849D01*
X22800Y41849D01*
G37*
%LPD*%
%LPC*%
G36*
X149800Y41849D02*
X149800Y41849D01*
X149799Y41850D01*
X149799Y97850D01*
X149800Y97851D01*
X167079Y97851D01*
X167093Y97852D01*
X167106Y97851D01*
X167292Y97872D01*
X167480Y97891D01*
X167493Y97895D01*
X167506Y97896D01*
X167684Y97953D01*
X167865Y98009D01*
X167877Y98015D01*
X167889Y98019D01*
X168053Y98111D01*
X168219Y98201D01*
X168229Y98209D01*
X168241Y98216D01*
X168384Y98339D01*
X168528Y98458D01*
X168536Y98469D01*
X168547Y98477D01*
X168663Y98626D01*
X168780Y98772D01*
X168786Y98784D01*
X168795Y98794D01*
X168880Y98964D01*
X168966Y99129D01*
X168969Y99142D01*
X168976Y99154D01*
X169025Y99336D01*
X169077Y99516D01*
X169078Y99530D01*
X169082Y99543D01*
X169095Y99730D01*
X169110Y99918D01*
X169109Y99931D01*
X169109Y99944D01*
X169085Y100132D01*
X169063Y100317D01*
X169059Y100330D01*
X169057Y100343D01*
X168956Y100659D01*
X168025Y102906D01*
X168025Y106794D01*
X169513Y110387D01*
X172263Y113137D01*
X175856Y114625D01*
X179744Y114625D01*
X183337Y113137D01*
X186087Y110387D01*
X187575Y106794D01*
X187575Y102906D01*
X186644Y100659D01*
X186640Y100646D01*
X186634Y100635D01*
X186582Y100455D01*
X186528Y100274D01*
X186526Y100261D01*
X186523Y100248D01*
X186507Y100060D01*
X186490Y99873D01*
X186491Y99860D01*
X186490Y99846D01*
X186512Y99660D01*
X186531Y99473D01*
X186535Y99460D01*
X186537Y99447D01*
X186595Y99267D01*
X186651Y99088D01*
X186657Y99077D01*
X186662Y99064D01*
X186754Y98900D01*
X186844Y98735D01*
X186853Y98725D01*
X186860Y98713D01*
X186982Y98571D01*
X187104Y98427D01*
X187114Y98419D01*
X187123Y98408D01*
X187271Y98294D01*
X187418Y98176D01*
X187430Y98170D01*
X187441Y98162D01*
X187609Y98078D01*
X187776Y97992D01*
X187789Y97988D01*
X187801Y97982D01*
X187984Y97933D01*
X188164Y97882D01*
X188177Y97881D01*
X188190Y97878D01*
X188521Y97851D01*
X205800Y97851D01*
X205801Y97850D01*
X205801Y41850D01*
X205800Y41849D01*
X149800Y41849D01*
G37*
%LPD*%
%LPC*%
G36*
X116839Y180339D02*
X116839Y180339D01*
X116839Y195279D01*
X118200Y194836D01*
X119625Y194110D01*
X120919Y193170D01*
X122050Y192039D01*
X122990Y190745D01*
X123716Y189320D01*
X124211Y187799D01*
X124461Y186220D01*
X124461Y180339D01*
X116839Y180339D01*
G37*
%LPD*%
%LPC*%
G36*
X116839Y175261D02*
X116839Y175261D01*
X124461Y175261D01*
X124461Y169380D01*
X124211Y167801D01*
X123716Y166280D01*
X122990Y164855D01*
X122050Y163561D01*
X120919Y162430D01*
X119625Y161490D01*
X118200Y160764D01*
X116839Y160321D01*
X116839Y175261D01*
G37*
%LPD*%
%LPC*%
G36*
X104139Y180339D02*
X104139Y180339D01*
X104139Y186220D01*
X104389Y187799D01*
X104884Y189320D01*
X105610Y190745D01*
X106550Y192039D01*
X107681Y193170D01*
X108975Y194110D01*
X110400Y194836D01*
X111761Y195279D01*
X111761Y180339D01*
X104139Y180339D01*
G37*
%LPD*%
%LPC*%
G36*
X110400Y160764D02*
X110400Y160764D01*
X108975Y161490D01*
X107681Y162430D01*
X106550Y163561D01*
X105610Y164855D01*
X104884Y166280D01*
X104389Y167801D01*
X104139Y169380D01*
X104139Y175261D01*
X111761Y175261D01*
X111761Y160321D01*
X110400Y160764D01*
G37*
%LPD*%
%LPC*%
G36*
X180549Y137599D02*
X180549Y137599D01*
X180549Y145303D01*
X181942Y144850D01*
X183456Y144079D01*
X184830Y143081D01*
X186031Y141880D01*
X187029Y140506D01*
X187800Y138992D01*
X188253Y137599D01*
X180549Y137599D01*
G37*
%LPD*%
%LPC*%
G36*
X53549Y137599D02*
X53549Y137599D01*
X53549Y145303D01*
X54942Y144850D01*
X56456Y144079D01*
X57830Y143081D01*
X59031Y141880D01*
X60029Y140506D01*
X60800Y138992D01*
X61253Y137599D01*
X53549Y137599D01*
G37*
%LPD*%
%LPC*%
G36*
X180549Y132101D02*
X180549Y132101D01*
X188253Y132101D01*
X187800Y130708D01*
X187029Y129194D01*
X186031Y127820D01*
X184830Y126619D01*
X183456Y125621D01*
X181942Y124850D01*
X180549Y124397D01*
X180549Y132101D01*
G37*
%LPD*%
%LPC*%
G36*
X53549Y132101D02*
X53549Y132101D01*
X61253Y132101D01*
X60800Y130708D01*
X60029Y129194D01*
X59031Y127820D01*
X57830Y126619D01*
X56456Y125621D01*
X54942Y124850D01*
X53549Y124397D01*
X53549Y132101D01*
G37*
%LPD*%
%LPC*%
G36*
X40347Y137599D02*
X40347Y137599D01*
X40800Y138992D01*
X41571Y140506D01*
X42569Y141880D01*
X43770Y143081D01*
X45144Y144079D01*
X46658Y144850D01*
X48051Y145303D01*
X48051Y137599D01*
X40347Y137599D01*
G37*
%LPD*%
%LPC*%
G36*
X167347Y137599D02*
X167347Y137599D01*
X167800Y138992D01*
X168571Y140506D01*
X169569Y141880D01*
X170770Y143081D01*
X172144Y144079D01*
X173658Y144850D01*
X175051Y145303D01*
X175051Y137599D01*
X167347Y137599D01*
G37*
%LPD*%
%LPC*%
G36*
X173658Y124850D02*
X173658Y124850D01*
X172144Y125621D01*
X170770Y126619D01*
X169569Y127820D01*
X168571Y129194D01*
X167800Y130708D01*
X167347Y132101D01*
X175051Y132101D01*
X175051Y124397D01*
X173658Y124850D01*
G37*
%LPD*%
%LPC*%
G36*
X46658Y124850D02*
X46658Y124850D01*
X45144Y125621D01*
X43770Y126619D01*
X42569Y127820D01*
X41571Y129194D01*
X40800Y130708D01*
X40347Y132101D01*
X48051Y132101D01*
X48051Y124397D01*
X46658Y124850D01*
G37*
%LPD*%
D10*
X139700Y185420D02*
X139700Y170180D01*
X114300Y170180D02*
X114300Y185420D01*
X88900Y185420D02*
X88900Y170180D01*
D11*
X50800Y19850D03*
X50800Y104850D03*
X50800Y134850D03*
X177800Y19850D03*
X177800Y104850D03*
X177800Y134850D03*
D12*
X88900Y177800D02*
X88900Y38100D01*
X70650Y19850D02*
X50800Y19850D01*
X70650Y19850D02*
X88900Y38100D01*
X139700Y38100D02*
X139700Y177800D01*
X157950Y19850D02*
X177800Y19850D01*
X157950Y19850D02*
X139700Y38100D01*
M02*
