G04 EAGLE Gerber RS-274X export*
G75*
%MOMM*%
%FSLAX34Y34*%
%LPD*%
%INTop Copper*%
%IPPOS*%
%AMOC8*
5,1,8,0,0,1.08239X$1,22.5*%
G01*
%ADD10C,1.524000*%
%ADD11C,1.650000*%
%ADD12C,0.609600*%

G36*
X45661Y10173D02*
X45661Y10173D01*
X45787Y10176D01*
X45861Y10193D01*
X45936Y10201D01*
X46057Y10238D01*
X46180Y10266D01*
X46249Y10297D01*
X46321Y10319D01*
X46432Y10379D01*
X46547Y10431D01*
X46609Y10475D01*
X46675Y10511D01*
X46772Y10591D01*
X46875Y10665D01*
X46926Y10720D01*
X46984Y10768D01*
X47063Y10867D01*
X47150Y10959D01*
X47189Y11023D01*
X47237Y11082D01*
X47295Y11194D01*
X47361Y11302D01*
X47387Y11373D01*
X47422Y11439D01*
X47457Y11561D01*
X47501Y11679D01*
X47513Y11754D01*
X47534Y11826D01*
X47544Y11952D01*
X47563Y12077D01*
X47560Y12152D01*
X47566Y12228D01*
X47552Y12353D01*
X47546Y12479D01*
X47528Y12553D01*
X47519Y12627D01*
X47480Y12747D01*
X47450Y12870D01*
X47418Y12938D01*
X47395Y13010D01*
X47333Y13120D01*
X47279Y13235D01*
X47234Y13295D01*
X47197Y13361D01*
X47114Y13456D01*
X47039Y13558D01*
X46983Y13608D01*
X46934Y13665D01*
X46834Y13743D01*
X46740Y13828D01*
X46665Y13874D01*
X46615Y13912D01*
X46550Y13945D01*
X46458Y14002D01*
X45144Y14671D01*
X43770Y15669D01*
X42569Y16870D01*
X41571Y18244D01*
X40800Y19758D01*
X40347Y21151D01*
X50082Y21151D01*
X50100Y21152D01*
X50117Y21151D01*
X50300Y21172D01*
X50482Y21191D01*
X50499Y21196D01*
X50517Y21198D01*
X50692Y21255D01*
X50792Y21286D01*
X50799Y21282D01*
X50977Y21234D01*
X51152Y21184D01*
X51170Y21182D01*
X51187Y21178D01*
X51518Y21151D01*
X61253Y21151D01*
X60800Y19758D01*
X60029Y18244D01*
X59031Y16870D01*
X57830Y15669D01*
X56456Y14671D01*
X55142Y14002D01*
X55036Y13934D01*
X54925Y13873D01*
X54867Y13825D01*
X54804Y13784D01*
X54713Y13697D01*
X54616Y13616D01*
X54568Y13557D01*
X54514Y13504D01*
X54443Y13400D01*
X54363Y13302D01*
X54329Y13235D01*
X54286Y13173D01*
X54236Y13056D01*
X54178Y12945D01*
X54157Y12872D01*
X54127Y12803D01*
X54101Y12679D01*
X54066Y12558D01*
X54060Y12483D01*
X54045Y12409D01*
X54044Y12282D01*
X54034Y12156D01*
X54042Y12081D01*
X54042Y12006D01*
X54066Y11882D01*
X54081Y11757D01*
X54104Y11685D01*
X54118Y11611D01*
X54166Y11494D01*
X54205Y11374D01*
X54242Y11308D01*
X54271Y11238D01*
X54341Y11133D01*
X54403Y11023D01*
X54453Y10966D01*
X54494Y10903D01*
X54584Y10814D01*
X54666Y10718D01*
X54726Y10672D01*
X54779Y10619D01*
X54885Y10549D01*
X54985Y10472D01*
X55052Y10438D01*
X55115Y10396D01*
X55232Y10349D01*
X55345Y10292D01*
X55418Y10273D01*
X55488Y10244D01*
X55612Y10221D01*
X55734Y10188D01*
X55821Y10181D01*
X55883Y10169D01*
X55957Y10170D01*
X56065Y10161D01*
X223335Y10161D01*
X223461Y10173D01*
X223587Y10176D01*
X223661Y10193D01*
X223736Y10201D01*
X223857Y10238D01*
X223980Y10266D01*
X224049Y10297D01*
X224121Y10319D01*
X224232Y10379D01*
X224347Y10431D01*
X224409Y10475D01*
X224475Y10511D01*
X224572Y10591D01*
X224675Y10665D01*
X224726Y10720D01*
X224784Y10768D01*
X224863Y10867D01*
X224950Y10959D01*
X224989Y11023D01*
X225037Y11082D01*
X225095Y11194D01*
X225161Y11302D01*
X225187Y11373D01*
X225222Y11439D01*
X225257Y11561D01*
X225301Y11679D01*
X225313Y11754D01*
X225334Y11826D01*
X225344Y11952D01*
X225363Y12077D01*
X225360Y12152D01*
X225366Y12228D01*
X225352Y12353D01*
X225346Y12479D01*
X225328Y12553D01*
X225319Y12627D01*
X225280Y12747D01*
X225250Y12870D01*
X225218Y12938D01*
X225195Y13010D01*
X225133Y13120D01*
X225079Y13235D01*
X225034Y13295D01*
X224997Y13361D01*
X224914Y13456D01*
X224839Y13558D01*
X224783Y13608D01*
X224734Y13665D01*
X224634Y13743D01*
X224540Y13828D01*
X224465Y13874D01*
X224415Y13912D01*
X224350Y13945D01*
X224258Y14002D01*
X222944Y14671D01*
X221570Y15669D01*
X220369Y16870D01*
X219371Y18244D01*
X218600Y19758D01*
X218147Y21151D01*
X227882Y21151D01*
X227900Y21152D01*
X227917Y21151D01*
X228100Y21172D01*
X228282Y21191D01*
X228299Y21196D01*
X228317Y21198D01*
X228492Y21255D01*
X228592Y21286D01*
X228599Y21282D01*
X228777Y21234D01*
X228952Y21184D01*
X228970Y21182D01*
X228987Y21178D01*
X229318Y21151D01*
X239053Y21151D01*
X238600Y19758D01*
X237829Y18244D01*
X236831Y16870D01*
X235630Y15669D01*
X234256Y14671D01*
X232942Y14002D01*
X232836Y13934D01*
X232725Y13873D01*
X232667Y13825D01*
X232604Y13784D01*
X232513Y13697D01*
X232416Y13616D01*
X232368Y13557D01*
X232314Y13504D01*
X232243Y13400D01*
X232163Y13302D01*
X232129Y13235D01*
X232086Y13173D01*
X232036Y13056D01*
X231978Y12945D01*
X231957Y12872D01*
X231927Y12803D01*
X231901Y12679D01*
X231866Y12558D01*
X231860Y12483D01*
X231845Y12409D01*
X231844Y12282D01*
X231834Y12156D01*
X231842Y12081D01*
X231842Y12006D01*
X231866Y11882D01*
X231881Y11757D01*
X231904Y11685D01*
X231918Y11611D01*
X231966Y11494D01*
X232005Y11374D01*
X232042Y11308D01*
X232071Y11238D01*
X232141Y11133D01*
X232203Y11023D01*
X232253Y10966D01*
X232294Y10903D01*
X232384Y10814D01*
X232466Y10718D01*
X232526Y10672D01*
X232579Y10619D01*
X232685Y10549D01*
X232785Y10472D01*
X232852Y10438D01*
X232915Y10396D01*
X233032Y10349D01*
X233145Y10292D01*
X233218Y10273D01*
X233288Y10244D01*
X233412Y10221D01*
X233534Y10188D01*
X233621Y10181D01*
X233683Y10169D01*
X233757Y10170D01*
X233865Y10161D01*
X267208Y10161D01*
X267226Y10163D01*
X267244Y10161D01*
X267426Y10182D01*
X267609Y10201D01*
X267626Y10206D01*
X267643Y10208D01*
X267818Y10265D01*
X267994Y10319D01*
X268009Y10327D01*
X268026Y10333D01*
X268186Y10423D01*
X268348Y10511D01*
X268361Y10522D01*
X268377Y10531D01*
X268516Y10651D01*
X268657Y10768D01*
X268668Y10782D01*
X268682Y10794D01*
X268794Y10939D01*
X268909Y11082D01*
X268917Y11098D01*
X268928Y11112D01*
X269010Y11277D01*
X269095Y11439D01*
X269100Y11456D01*
X269108Y11472D01*
X269155Y11651D01*
X269206Y11826D01*
X269208Y11844D01*
X269212Y11861D01*
X269239Y12192D01*
X269239Y210058D01*
X269237Y210076D01*
X269239Y210094D01*
X269218Y210276D01*
X269199Y210459D01*
X269194Y210476D01*
X269192Y210493D01*
X269135Y210668D01*
X269081Y210844D01*
X269073Y210859D01*
X269067Y210876D01*
X268977Y211036D01*
X268889Y211198D01*
X268878Y211211D01*
X268869Y211227D01*
X268749Y211366D01*
X268632Y211507D01*
X268618Y211518D01*
X268606Y211532D01*
X268461Y211644D01*
X268318Y211759D01*
X268302Y211767D01*
X268288Y211778D01*
X268123Y211860D01*
X267961Y211945D01*
X267944Y211950D01*
X267928Y211958D01*
X267749Y212005D01*
X267574Y212056D01*
X267556Y212058D01*
X267539Y212062D01*
X267208Y212089D01*
X12192Y212089D01*
X12174Y212087D01*
X12156Y212089D01*
X11974Y212068D01*
X11791Y212049D01*
X11774Y212044D01*
X11757Y212042D01*
X11582Y211985D01*
X11406Y211931D01*
X11391Y211923D01*
X11374Y211917D01*
X11214Y211827D01*
X11052Y211739D01*
X11039Y211728D01*
X11023Y211719D01*
X10884Y211599D01*
X10743Y211482D01*
X10732Y211468D01*
X10718Y211456D01*
X10606Y211311D01*
X10491Y211168D01*
X10483Y211152D01*
X10472Y211138D01*
X10390Y210973D01*
X10305Y210811D01*
X10300Y210794D01*
X10292Y210778D01*
X10245Y210599D01*
X10194Y210424D01*
X10192Y210406D01*
X10188Y210389D01*
X10161Y210058D01*
X10161Y12192D01*
X10163Y12174D01*
X10161Y12156D01*
X10182Y11974D01*
X10201Y11791D01*
X10206Y11774D01*
X10208Y11757D01*
X10265Y11582D01*
X10319Y11406D01*
X10327Y11391D01*
X10333Y11374D01*
X10423Y11214D01*
X10511Y11052D01*
X10522Y11039D01*
X10531Y11023D01*
X10651Y10884D01*
X10768Y10743D01*
X10782Y10732D01*
X10794Y10718D01*
X10939Y10606D01*
X11082Y10491D01*
X11098Y10483D01*
X11112Y10472D01*
X11277Y10390D01*
X11439Y10305D01*
X11456Y10300D01*
X11472Y10292D01*
X11651Y10245D01*
X11826Y10194D01*
X11844Y10192D01*
X11861Y10188D01*
X12192Y10161D01*
X45535Y10161D01*
X45661Y10173D01*
G37*
%LPC*%
G36*
X226656Y44125D02*
X226656Y44125D01*
X223063Y45613D01*
X220313Y48363D01*
X218825Y51956D01*
X218825Y55844D01*
X219756Y58091D01*
X219760Y58104D01*
X219766Y58115D01*
X219818Y58295D01*
X219872Y58476D01*
X219874Y58489D01*
X219877Y58502D01*
X219893Y58690D01*
X219910Y58877D01*
X219909Y58890D01*
X219910Y58904D01*
X219888Y59090D01*
X219869Y59277D01*
X219865Y59290D01*
X219863Y59303D01*
X219805Y59483D01*
X219749Y59662D01*
X219743Y59673D01*
X219738Y59686D01*
X219646Y59850D01*
X219556Y60015D01*
X219547Y60025D01*
X219540Y60037D01*
X219418Y60179D01*
X219296Y60323D01*
X219286Y60331D01*
X219277Y60342D01*
X219129Y60456D01*
X218982Y60574D01*
X218970Y60580D01*
X218959Y60588D01*
X218791Y60672D01*
X218624Y60758D01*
X218611Y60762D01*
X218599Y60768D01*
X218416Y60817D01*
X218236Y60868D01*
X218223Y60869D01*
X218210Y60872D01*
X217879Y60899D01*
X200600Y60899D01*
X200599Y60900D01*
X200599Y116900D01*
X200600Y116901D01*
X256600Y116901D01*
X256601Y116900D01*
X256601Y60900D01*
X256600Y60899D01*
X239321Y60899D01*
X239307Y60898D01*
X239294Y60899D01*
X239108Y60878D01*
X238920Y60859D01*
X238907Y60855D01*
X238894Y60854D01*
X238716Y60797D01*
X238535Y60741D01*
X238523Y60735D01*
X238511Y60731D01*
X238347Y60639D01*
X238181Y60549D01*
X238171Y60541D01*
X238159Y60534D01*
X238016Y60411D01*
X237872Y60292D01*
X237864Y60281D01*
X237853Y60273D01*
X237737Y60124D01*
X237620Y59978D01*
X237614Y59966D01*
X237605Y59956D01*
X237520Y59786D01*
X237434Y59621D01*
X237431Y59608D01*
X237424Y59596D01*
X237375Y59414D01*
X237323Y59234D01*
X237322Y59220D01*
X237318Y59207D01*
X237305Y59020D01*
X237290Y58832D01*
X237291Y58819D01*
X237291Y58806D01*
X237315Y58618D01*
X237337Y58433D01*
X237341Y58420D01*
X237343Y58407D01*
X237444Y58091D01*
X238375Y55844D01*
X238375Y51956D01*
X236887Y48363D01*
X234137Y45613D01*
X231531Y44534D01*
X230544Y44125D01*
X226656Y44125D01*
G37*
%LPD*%
%LPC*%
G36*
X48856Y44125D02*
X48856Y44125D01*
X45263Y45613D01*
X42513Y48363D01*
X41025Y51956D01*
X41025Y55844D01*
X41956Y58091D01*
X41960Y58104D01*
X41966Y58115D01*
X42018Y58295D01*
X42072Y58476D01*
X42074Y58489D01*
X42077Y58502D01*
X42093Y58690D01*
X42110Y58877D01*
X42109Y58890D01*
X42110Y58904D01*
X42088Y59090D01*
X42069Y59277D01*
X42065Y59290D01*
X42063Y59303D01*
X42005Y59483D01*
X41949Y59662D01*
X41943Y59673D01*
X41938Y59686D01*
X41846Y59850D01*
X41756Y60015D01*
X41747Y60025D01*
X41740Y60037D01*
X41618Y60179D01*
X41496Y60323D01*
X41486Y60331D01*
X41477Y60342D01*
X41329Y60456D01*
X41182Y60574D01*
X41170Y60580D01*
X41159Y60588D01*
X40991Y60672D01*
X40824Y60758D01*
X40811Y60762D01*
X40799Y60768D01*
X40616Y60817D01*
X40436Y60868D01*
X40423Y60869D01*
X40410Y60872D01*
X40079Y60899D01*
X22800Y60899D01*
X22799Y60900D01*
X22799Y116900D01*
X22800Y116901D01*
X78800Y116901D01*
X78801Y116900D01*
X78801Y60900D01*
X78800Y60899D01*
X61521Y60899D01*
X61507Y60898D01*
X61494Y60899D01*
X61308Y60878D01*
X61120Y60859D01*
X61107Y60855D01*
X61094Y60854D01*
X60916Y60797D01*
X60735Y60741D01*
X60723Y60735D01*
X60711Y60731D01*
X60547Y60639D01*
X60381Y60549D01*
X60371Y60541D01*
X60359Y60534D01*
X60216Y60411D01*
X60072Y60292D01*
X60064Y60281D01*
X60053Y60273D01*
X59937Y60124D01*
X59820Y59978D01*
X59814Y59966D01*
X59805Y59956D01*
X59720Y59786D01*
X59634Y59621D01*
X59631Y59608D01*
X59624Y59596D01*
X59575Y59414D01*
X59523Y59234D01*
X59522Y59220D01*
X59518Y59207D01*
X59505Y59020D01*
X59490Y58832D01*
X59491Y58819D01*
X59491Y58806D01*
X59515Y58618D01*
X59537Y58433D01*
X59541Y58420D01*
X59543Y58407D01*
X59644Y58091D01*
X60575Y55844D01*
X60575Y51956D01*
X59087Y48363D01*
X56337Y45613D01*
X53731Y44534D01*
X52744Y44125D01*
X48856Y44125D01*
G37*
%LPD*%
%LPC*%
G36*
X226656Y129125D02*
X226656Y129125D01*
X223063Y130613D01*
X220313Y133363D01*
X218825Y136956D01*
X218825Y140844D01*
X220313Y144437D01*
X223150Y147274D01*
X223165Y147282D01*
X223300Y147399D01*
X223438Y147513D01*
X223453Y147530D01*
X223470Y147545D01*
X223579Y147687D01*
X223692Y147826D01*
X223703Y147845D01*
X223716Y147863D01*
X223796Y148023D01*
X223879Y148182D01*
X223886Y148204D01*
X223896Y148224D01*
X223942Y148397D01*
X223992Y148568D01*
X223994Y148591D01*
X224000Y148613D01*
X224027Y148943D01*
X224027Y162365D01*
X224025Y162391D01*
X224027Y162418D01*
X224005Y162592D01*
X223987Y162765D01*
X223980Y162791D01*
X223976Y162817D01*
X223921Y162983D01*
X223869Y163150D01*
X223856Y163174D01*
X223848Y163199D01*
X223761Y163351D01*
X223677Y163504D01*
X223660Y163525D01*
X223647Y163548D01*
X223432Y163801D01*
X208251Y178982D01*
X208230Y178999D01*
X208213Y179020D01*
X208075Y179127D01*
X207939Y179237D01*
X207916Y179250D01*
X207895Y179266D01*
X207738Y179344D01*
X207584Y179426D01*
X207558Y179434D01*
X207534Y179446D01*
X207365Y179491D01*
X207198Y179541D01*
X207171Y179543D01*
X207145Y179550D01*
X206815Y179577D01*
X176276Y179577D01*
X176258Y179575D01*
X176240Y179577D01*
X176058Y179556D01*
X175875Y179537D01*
X175858Y179532D01*
X175841Y179530D01*
X175666Y179473D01*
X175490Y179419D01*
X175475Y179411D01*
X175458Y179405D01*
X175298Y179315D01*
X175136Y179227D01*
X175123Y179216D01*
X175107Y179207D01*
X174968Y179087D01*
X174827Y178970D01*
X174816Y178956D01*
X174802Y178944D01*
X174690Y178799D01*
X174575Y178656D01*
X174567Y178640D01*
X174556Y178626D01*
X174474Y178461D01*
X174389Y178299D01*
X174384Y178282D01*
X174376Y178266D01*
X174329Y178087D01*
X174278Y177912D01*
X174276Y177894D01*
X174272Y177877D01*
X174245Y177546D01*
X174245Y174711D01*
X172853Y171350D01*
X170280Y168777D01*
X166919Y167385D01*
X163281Y167385D01*
X159920Y168777D01*
X157347Y171350D01*
X155955Y174711D01*
X155955Y193589D01*
X157347Y196950D01*
X159920Y199523D01*
X163281Y200915D01*
X166919Y200915D01*
X170280Y199523D01*
X172853Y196950D01*
X174245Y193589D01*
X174245Y190754D01*
X174247Y190736D01*
X174245Y190718D01*
X174266Y190536D01*
X174285Y190353D01*
X174290Y190336D01*
X174292Y190319D01*
X174349Y190144D01*
X174403Y189968D01*
X174411Y189953D01*
X174417Y189936D01*
X174507Y189776D01*
X174595Y189614D01*
X174606Y189601D01*
X174615Y189585D01*
X174735Y189446D01*
X174852Y189305D01*
X174866Y189294D01*
X174878Y189280D01*
X175023Y189168D01*
X175166Y189053D01*
X175182Y189045D01*
X175196Y189034D01*
X175361Y188952D01*
X175523Y188867D01*
X175540Y188862D01*
X175556Y188854D01*
X175735Y188807D01*
X175910Y188756D01*
X175928Y188754D01*
X175945Y188750D01*
X176276Y188723D01*
X210460Y188723D01*
X212140Y188027D01*
X232477Y167690D01*
X233173Y166010D01*
X233173Y148943D01*
X233175Y148921D01*
X233173Y148898D01*
X233195Y148721D01*
X233213Y148543D01*
X233219Y148521D01*
X233222Y148499D01*
X233278Y148329D01*
X233331Y148158D01*
X233342Y148138D01*
X233349Y148117D01*
X233437Y147961D01*
X233523Y147804D01*
X233537Y147786D01*
X233548Y147767D01*
X233666Y147632D01*
X233780Y147494D01*
X233798Y147480D01*
X233813Y147463D01*
X233955Y147354D01*
X234030Y147294D01*
X236887Y144437D01*
X238375Y140844D01*
X238375Y136956D01*
X236887Y133363D01*
X234137Y130613D01*
X230544Y129125D01*
X226656Y129125D01*
G37*
%LPD*%
%LPC*%
G36*
X48856Y129125D02*
X48856Y129125D01*
X45263Y130613D01*
X42513Y133363D01*
X41025Y136956D01*
X41025Y140844D01*
X42513Y144437D01*
X45350Y147274D01*
X45365Y147282D01*
X45500Y147399D01*
X45638Y147513D01*
X45653Y147530D01*
X45670Y147545D01*
X45779Y147687D01*
X45892Y147826D01*
X45903Y147845D01*
X45916Y147863D01*
X45996Y148023D01*
X46079Y148182D01*
X46086Y148204D01*
X46096Y148224D01*
X46142Y148397D01*
X46192Y148568D01*
X46194Y148591D01*
X46200Y148613D01*
X46227Y148943D01*
X46227Y166010D01*
X46923Y167690D01*
X67260Y188027D01*
X68940Y188723D01*
X103124Y188723D01*
X103142Y188725D01*
X103160Y188723D01*
X103342Y188744D01*
X103525Y188763D01*
X103542Y188768D01*
X103559Y188770D01*
X103734Y188827D01*
X103910Y188881D01*
X103925Y188889D01*
X103942Y188895D01*
X104102Y188985D01*
X104264Y189073D01*
X104277Y189084D01*
X104293Y189093D01*
X104432Y189213D01*
X104573Y189330D01*
X104584Y189344D01*
X104598Y189356D01*
X104710Y189501D01*
X104825Y189644D01*
X104833Y189660D01*
X104844Y189674D01*
X104926Y189839D01*
X105011Y190001D01*
X105016Y190018D01*
X105024Y190034D01*
X105071Y190213D01*
X105122Y190388D01*
X105124Y190406D01*
X105128Y190423D01*
X105155Y190754D01*
X105155Y193589D01*
X106547Y196950D01*
X109120Y199523D01*
X112481Y200915D01*
X116119Y200915D01*
X119480Y199523D01*
X122053Y196950D01*
X123445Y193589D01*
X123445Y174711D01*
X122053Y171350D01*
X119480Y168777D01*
X116119Y167385D01*
X112481Y167385D01*
X109120Y168777D01*
X106547Y171350D01*
X105155Y174711D01*
X105155Y177546D01*
X105153Y177564D01*
X105155Y177582D01*
X105134Y177764D01*
X105115Y177947D01*
X105110Y177964D01*
X105108Y177981D01*
X105051Y178156D01*
X104997Y178332D01*
X104989Y178347D01*
X104983Y178364D01*
X104893Y178524D01*
X104805Y178686D01*
X104794Y178699D01*
X104785Y178715D01*
X104665Y178854D01*
X104548Y178995D01*
X104534Y179006D01*
X104522Y179020D01*
X104377Y179132D01*
X104234Y179247D01*
X104218Y179255D01*
X104204Y179266D01*
X104039Y179348D01*
X103877Y179433D01*
X103860Y179438D01*
X103844Y179446D01*
X103665Y179493D01*
X103490Y179544D01*
X103472Y179546D01*
X103455Y179550D01*
X103124Y179577D01*
X72585Y179577D01*
X72559Y179575D01*
X72532Y179577D01*
X72358Y179555D01*
X72185Y179537D01*
X72159Y179530D01*
X72133Y179526D01*
X71967Y179471D01*
X71800Y179419D01*
X71776Y179406D01*
X71751Y179398D01*
X71599Y179311D01*
X71446Y179227D01*
X71425Y179210D01*
X71402Y179197D01*
X71149Y178982D01*
X55968Y163801D01*
X55951Y163780D01*
X55930Y163763D01*
X55823Y163625D01*
X55713Y163489D01*
X55700Y163466D01*
X55684Y163445D01*
X55606Y163288D01*
X55524Y163134D01*
X55516Y163108D01*
X55504Y163084D01*
X55459Y162914D01*
X55409Y162748D01*
X55407Y162721D01*
X55400Y162695D01*
X55373Y162365D01*
X55373Y148943D01*
X55375Y148921D01*
X55373Y148898D01*
X55395Y148721D01*
X55413Y148543D01*
X55419Y148521D01*
X55422Y148499D01*
X55478Y148329D01*
X55531Y148158D01*
X55542Y148138D01*
X55549Y148117D01*
X55637Y147961D01*
X55723Y147804D01*
X55737Y147786D01*
X55748Y147767D01*
X55866Y147632D01*
X55980Y147494D01*
X55998Y147480D01*
X56013Y147463D01*
X56155Y147354D01*
X56230Y147294D01*
X59087Y144437D01*
X60575Y140844D01*
X60575Y136956D01*
X59087Y133363D01*
X56337Y130613D01*
X52744Y129125D01*
X48856Y129125D01*
G37*
%LPD*%
%LPC*%
G36*
X142239Y186689D02*
X142239Y186689D01*
X142239Y201629D01*
X143600Y201186D01*
X145025Y200460D01*
X146319Y199520D01*
X147450Y198389D01*
X148390Y197095D01*
X149116Y195670D01*
X149611Y194149D01*
X149861Y192570D01*
X149861Y186689D01*
X142239Y186689D01*
G37*
%LPD*%
%LPC*%
G36*
X142239Y181611D02*
X142239Y181611D01*
X149861Y181611D01*
X149861Y175730D01*
X149611Y174151D01*
X149116Y172630D01*
X148390Y171205D01*
X147450Y169911D01*
X146319Y168780D01*
X145025Y167840D01*
X143600Y167114D01*
X142239Y166671D01*
X142239Y181611D01*
G37*
%LPD*%
%LPC*%
G36*
X129539Y186689D02*
X129539Y186689D01*
X129539Y192570D01*
X129789Y194149D01*
X130284Y195670D01*
X131010Y197095D01*
X131950Y198389D01*
X133081Y199520D01*
X134375Y200460D01*
X135800Y201186D01*
X137161Y201629D01*
X137161Y186689D01*
X129539Y186689D01*
G37*
%LPD*%
%LPC*%
G36*
X135800Y167114D02*
X135800Y167114D01*
X134375Y167840D01*
X133081Y168780D01*
X131950Y169911D01*
X131010Y171205D01*
X130284Y172630D01*
X129789Y174151D01*
X129539Y175730D01*
X129539Y181611D01*
X137161Y181611D01*
X137161Y166671D01*
X135800Y167114D01*
G37*
%LPD*%
%LPC*%
G36*
X231349Y26649D02*
X231349Y26649D01*
X231349Y34353D01*
X232742Y33900D01*
X234256Y33129D01*
X235630Y32131D01*
X236831Y30930D01*
X237829Y29556D01*
X238600Y28042D01*
X239053Y26649D01*
X231349Y26649D01*
G37*
%LPD*%
%LPC*%
G36*
X53549Y26649D02*
X53549Y26649D01*
X53549Y34353D01*
X54942Y33900D01*
X56456Y33129D01*
X57830Y32131D01*
X59031Y30930D01*
X60029Y29556D01*
X60800Y28042D01*
X61253Y26649D01*
X53549Y26649D01*
G37*
%LPD*%
%LPC*%
G36*
X218147Y26649D02*
X218147Y26649D01*
X218600Y28042D01*
X219371Y29556D01*
X220369Y30930D01*
X221570Y32131D01*
X222944Y33129D01*
X224458Y33900D01*
X225851Y34353D01*
X225851Y26649D01*
X218147Y26649D01*
G37*
%LPD*%
%LPC*%
G36*
X40347Y26649D02*
X40347Y26649D01*
X40800Y28042D01*
X41571Y29556D01*
X42569Y30930D01*
X43770Y32131D01*
X45144Y33129D01*
X46658Y33900D01*
X48051Y34353D01*
X48051Y26649D01*
X40347Y26649D01*
G37*
%LPD*%
D10*
X165100Y191770D02*
X165100Y176530D01*
X139700Y176530D02*
X139700Y191770D01*
X114300Y191770D02*
X114300Y176530D01*
D11*
X50800Y138900D03*
X50800Y53900D03*
X50800Y23900D03*
X228600Y138900D03*
X228600Y53900D03*
X228600Y23900D03*
D12*
X114300Y184150D02*
X69850Y184150D01*
X50800Y165100D01*
X50800Y138900D01*
X228600Y138900D02*
X228600Y165100D01*
X209550Y184150D01*
X165100Y184150D01*
M02*
