G04 EAGLE Gerber RS-274X export*
G75*
%MOMM*%
%FSLAX34Y34*%
%LPD*%
%INBottom Copper*%
%IPPOS*%
%AMOC8*
5,1,8,0,0,1.08239X$1,22.5*%
G01*
%ADD10C,1.524000*%
%ADD11C,1.650000*%

G36*
X41771Y10162D02*
X41771Y10162D01*
X41780Y10161D01*
X41972Y10182D01*
X42162Y10201D01*
X42171Y10203D01*
X42180Y10204D01*
X42362Y10262D01*
X42547Y10319D01*
X42555Y10323D01*
X42564Y10326D01*
X42732Y10419D01*
X42901Y10511D01*
X42908Y10516D01*
X42916Y10521D01*
X43064Y10646D01*
X43211Y10768D01*
X43216Y10775D01*
X43223Y10781D01*
X43343Y10933D01*
X43463Y11082D01*
X43467Y11090D01*
X43473Y11097D01*
X43560Y11270D01*
X43649Y11439D01*
X43651Y11448D01*
X43655Y11456D01*
X43707Y11641D01*
X43760Y11826D01*
X43761Y11835D01*
X43763Y11844D01*
X43777Y12036D01*
X43793Y12228D01*
X43792Y12236D01*
X43792Y12245D01*
X43769Y12435D01*
X43746Y12627D01*
X43743Y12636D01*
X43742Y12645D01*
X43681Y12826D01*
X43621Y13010D01*
X43617Y13018D01*
X43614Y13026D01*
X43518Y13194D01*
X43423Y13361D01*
X43417Y13368D01*
X43413Y13375D01*
X43198Y13628D01*
X42513Y14313D01*
X41025Y17906D01*
X41025Y21794D01*
X42513Y25387D01*
X45263Y28137D01*
X48856Y29625D01*
X52744Y29625D01*
X56337Y28137D01*
X59087Y25387D01*
X60575Y21794D01*
X60575Y17906D01*
X59087Y14313D01*
X58402Y13628D01*
X58396Y13621D01*
X58389Y13616D01*
X58270Y13467D01*
X58147Y13317D01*
X58143Y13309D01*
X58137Y13302D01*
X58049Y13132D01*
X57958Y12961D01*
X57956Y12952D01*
X57951Y12945D01*
X57898Y12760D01*
X57843Y12575D01*
X57843Y12566D01*
X57840Y12558D01*
X57824Y12367D01*
X57807Y12174D01*
X57808Y12165D01*
X57807Y12156D01*
X57829Y11967D01*
X57850Y11774D01*
X57853Y11765D01*
X57854Y11757D01*
X57914Y11574D01*
X57972Y11390D01*
X57976Y11382D01*
X57979Y11374D01*
X58074Y11206D01*
X58167Y11038D01*
X58172Y11031D01*
X58177Y11023D01*
X58303Y10877D01*
X58427Y10731D01*
X58434Y10725D01*
X58440Y10718D01*
X58593Y10600D01*
X58743Y10481D01*
X58751Y10477D01*
X58758Y10472D01*
X58930Y10386D01*
X59102Y10299D01*
X59111Y10296D01*
X59119Y10292D01*
X59304Y10243D01*
X59490Y10191D01*
X59499Y10190D01*
X59507Y10188D01*
X59838Y10161D01*
X168762Y10161D01*
X168771Y10162D01*
X168780Y10161D01*
X168972Y10182D01*
X169162Y10201D01*
X169171Y10203D01*
X169180Y10204D01*
X169362Y10262D01*
X169547Y10319D01*
X169555Y10323D01*
X169564Y10326D01*
X169732Y10419D01*
X169901Y10511D01*
X169908Y10516D01*
X169916Y10521D01*
X170064Y10646D01*
X170211Y10768D01*
X170216Y10775D01*
X170223Y10781D01*
X170343Y10933D01*
X170463Y11082D01*
X170467Y11090D01*
X170473Y11097D01*
X170560Y11270D01*
X170649Y11439D01*
X170651Y11448D01*
X170655Y11456D01*
X170707Y11641D01*
X170760Y11826D01*
X170761Y11835D01*
X170763Y11844D01*
X170777Y12036D01*
X170793Y12228D01*
X170792Y12236D01*
X170792Y12245D01*
X170769Y12435D01*
X170746Y12627D01*
X170743Y12636D01*
X170742Y12645D01*
X170681Y12826D01*
X170621Y13010D01*
X170617Y13018D01*
X170614Y13026D01*
X170518Y13194D01*
X170423Y13361D01*
X170417Y13368D01*
X170413Y13375D01*
X170198Y13628D01*
X169513Y14313D01*
X168025Y17906D01*
X168025Y21794D01*
X169513Y25387D01*
X172263Y28137D01*
X175856Y29625D01*
X179744Y29625D01*
X183337Y28137D01*
X186087Y25387D01*
X187575Y21794D01*
X187575Y17906D01*
X186087Y14313D01*
X185402Y13628D01*
X185396Y13621D01*
X185389Y13616D01*
X185270Y13467D01*
X185147Y13317D01*
X185143Y13309D01*
X185137Y13302D01*
X185049Y13132D01*
X184958Y12961D01*
X184956Y12952D01*
X184951Y12945D01*
X184898Y12760D01*
X184843Y12575D01*
X184843Y12566D01*
X184840Y12558D01*
X184824Y12367D01*
X184807Y12174D01*
X184808Y12165D01*
X184807Y12156D01*
X184829Y11967D01*
X184850Y11774D01*
X184853Y11765D01*
X184854Y11757D01*
X184914Y11574D01*
X184972Y11390D01*
X184976Y11382D01*
X184979Y11374D01*
X185074Y11206D01*
X185167Y11038D01*
X185172Y11031D01*
X185177Y11023D01*
X185303Y10877D01*
X185427Y10731D01*
X185434Y10725D01*
X185440Y10718D01*
X185593Y10600D01*
X185743Y10481D01*
X185751Y10477D01*
X185758Y10472D01*
X185930Y10386D01*
X186102Y10299D01*
X186111Y10296D01*
X186119Y10292D01*
X186304Y10243D01*
X186490Y10191D01*
X186499Y10190D01*
X186507Y10188D01*
X186838Y10161D01*
X216408Y10161D01*
X216426Y10163D01*
X216444Y10161D01*
X216626Y10182D01*
X216809Y10201D01*
X216826Y10206D01*
X216843Y10208D01*
X217018Y10265D01*
X217194Y10319D01*
X217209Y10327D01*
X217226Y10333D01*
X217386Y10423D01*
X217548Y10511D01*
X217561Y10522D01*
X217577Y10531D01*
X217716Y10651D01*
X217857Y10768D01*
X217868Y10782D01*
X217882Y10794D01*
X217994Y10939D01*
X218109Y11082D01*
X218117Y11098D01*
X218128Y11112D01*
X218210Y11277D01*
X218295Y11439D01*
X218300Y11456D01*
X218308Y11472D01*
X218355Y11651D01*
X218406Y11826D01*
X218408Y11844D01*
X218412Y11861D01*
X218439Y12192D01*
X218439Y210058D01*
X218437Y210076D01*
X218439Y210094D01*
X218418Y210276D01*
X218399Y210459D01*
X218394Y210476D01*
X218392Y210493D01*
X218335Y210668D01*
X218281Y210844D01*
X218273Y210859D01*
X218267Y210876D01*
X218177Y211036D01*
X218089Y211198D01*
X218078Y211211D01*
X218069Y211227D01*
X217949Y211366D01*
X217832Y211507D01*
X217818Y211518D01*
X217806Y211532D01*
X217661Y211644D01*
X217518Y211759D01*
X217502Y211767D01*
X217488Y211778D01*
X217323Y211860D01*
X217161Y211945D01*
X217144Y211950D01*
X217128Y211958D01*
X216949Y212005D01*
X216774Y212056D01*
X216756Y212058D01*
X216739Y212062D01*
X216408Y212089D01*
X12192Y212089D01*
X12174Y212087D01*
X12156Y212089D01*
X11974Y212068D01*
X11791Y212049D01*
X11774Y212044D01*
X11757Y212042D01*
X11582Y211985D01*
X11406Y211931D01*
X11391Y211923D01*
X11374Y211917D01*
X11214Y211827D01*
X11052Y211739D01*
X11039Y211728D01*
X11023Y211719D01*
X10884Y211599D01*
X10743Y211482D01*
X10732Y211468D01*
X10718Y211456D01*
X10606Y211311D01*
X10491Y211168D01*
X10483Y211152D01*
X10472Y211138D01*
X10390Y210973D01*
X10305Y210811D01*
X10300Y210794D01*
X10292Y210778D01*
X10245Y210599D01*
X10194Y210424D01*
X10192Y210406D01*
X10188Y210389D01*
X10161Y210058D01*
X10161Y12192D01*
X10163Y12174D01*
X10161Y12156D01*
X10182Y11974D01*
X10201Y11791D01*
X10206Y11774D01*
X10208Y11757D01*
X10265Y11582D01*
X10319Y11406D01*
X10327Y11391D01*
X10333Y11374D01*
X10423Y11214D01*
X10511Y11052D01*
X10522Y11039D01*
X10531Y11023D01*
X10651Y10884D01*
X10768Y10743D01*
X10782Y10732D01*
X10794Y10718D01*
X10939Y10606D01*
X11082Y10491D01*
X11098Y10483D01*
X11112Y10472D01*
X11277Y10390D01*
X11439Y10305D01*
X11456Y10300D01*
X11472Y10292D01*
X11651Y10245D01*
X11826Y10194D01*
X11844Y10192D01*
X11861Y10188D01*
X12192Y10161D01*
X41762Y10161D01*
X41771Y10162D01*
G37*
%LPC*%
G36*
X87081Y161035D02*
X87081Y161035D01*
X83720Y162427D01*
X81147Y165000D01*
X79755Y168361D01*
X79755Y187239D01*
X81147Y190600D01*
X83720Y193173D01*
X87081Y194565D01*
X90719Y194565D01*
X94080Y193173D01*
X96653Y190600D01*
X98045Y187239D01*
X98045Y168361D01*
X96653Y165000D01*
X94080Y162427D01*
X93885Y162346D01*
X93884Y162346D01*
X90719Y161035D01*
X87081Y161035D01*
G37*
%LPD*%
%LPC*%
G36*
X137881Y161035D02*
X137881Y161035D01*
X134520Y162427D01*
X131947Y165000D01*
X130555Y168361D01*
X130555Y187239D01*
X131947Y190600D01*
X134520Y193173D01*
X137881Y194565D01*
X141519Y194565D01*
X144880Y193173D01*
X147453Y190600D01*
X148845Y187239D01*
X148845Y168361D01*
X147453Y165000D01*
X144880Y162427D01*
X144685Y162346D01*
X144684Y162346D01*
X141519Y161035D01*
X137881Y161035D01*
G37*
%LPD*%
%LPC*%
G36*
X48856Y95075D02*
X48856Y95075D01*
X45263Y96563D01*
X42513Y99313D01*
X41025Y102906D01*
X41025Y106794D01*
X42513Y110387D01*
X45263Y113137D01*
X48856Y114625D01*
X52744Y114625D01*
X56337Y113137D01*
X59087Y110387D01*
X60575Y106794D01*
X60575Y102906D01*
X59087Y99313D01*
X56337Y96563D01*
X52744Y95075D01*
X48856Y95075D01*
G37*
%LPD*%
%LPC*%
G36*
X175856Y95075D02*
X175856Y95075D01*
X172263Y96563D01*
X169513Y99313D01*
X168025Y102906D01*
X168025Y106794D01*
X169513Y110387D01*
X172263Y113137D01*
X175856Y114625D01*
X179744Y114625D01*
X183337Y113137D01*
X186087Y110387D01*
X187575Y106794D01*
X187575Y102906D01*
X186087Y99313D01*
X183337Y96563D01*
X179744Y95075D01*
X175856Y95075D01*
G37*
%LPD*%
%LPC*%
G36*
X116839Y180339D02*
X116839Y180339D01*
X116839Y195279D01*
X118200Y194836D01*
X119625Y194110D01*
X120919Y193170D01*
X122050Y192039D01*
X122990Y190745D01*
X123716Y189320D01*
X124211Y187799D01*
X124461Y186220D01*
X124461Y180339D01*
X116839Y180339D01*
G37*
%LPD*%
%LPC*%
G36*
X116839Y175261D02*
X116839Y175261D01*
X124461Y175261D01*
X124461Y169380D01*
X124211Y167801D01*
X123716Y166280D01*
X122990Y164855D01*
X122050Y163561D01*
X120919Y162430D01*
X119625Y161490D01*
X118200Y160764D01*
X116839Y160321D01*
X116839Y175261D01*
G37*
%LPD*%
%LPC*%
G36*
X104139Y180339D02*
X104139Y180339D01*
X104139Y186220D01*
X104389Y187799D01*
X104884Y189320D01*
X105610Y190745D01*
X106550Y192039D01*
X107681Y193170D01*
X108975Y194110D01*
X110400Y194836D01*
X111761Y195279D01*
X111761Y180339D01*
X104139Y180339D01*
G37*
%LPD*%
%LPC*%
G36*
X110400Y160764D02*
X110400Y160764D01*
X108975Y161490D01*
X107681Y162430D01*
X106550Y163561D01*
X105610Y164855D01*
X104884Y166280D01*
X104389Y167801D01*
X104139Y169380D01*
X104139Y175261D01*
X111761Y175261D01*
X111761Y160321D01*
X110400Y160764D01*
G37*
%LPD*%
%LPC*%
G36*
X180549Y137599D02*
X180549Y137599D01*
X180549Y145303D01*
X181942Y144850D01*
X183456Y144079D01*
X184830Y143081D01*
X186031Y141880D01*
X187029Y140506D01*
X187800Y138992D01*
X188253Y137599D01*
X180549Y137599D01*
G37*
%LPD*%
%LPC*%
G36*
X53549Y137599D02*
X53549Y137599D01*
X53549Y145303D01*
X54942Y144850D01*
X56456Y144079D01*
X57830Y143081D01*
X59031Y141880D01*
X60029Y140506D01*
X60800Y138992D01*
X61253Y137599D01*
X53549Y137599D01*
G37*
%LPD*%
%LPC*%
G36*
X180549Y132101D02*
X180549Y132101D01*
X188253Y132101D01*
X187800Y130708D01*
X187029Y129194D01*
X186031Y127820D01*
X184830Y126619D01*
X183456Y125621D01*
X181942Y124850D01*
X180549Y124397D01*
X180549Y132101D01*
G37*
%LPD*%
%LPC*%
G36*
X53549Y132101D02*
X53549Y132101D01*
X61253Y132101D01*
X60800Y130708D01*
X60029Y129194D01*
X59031Y127820D01*
X57830Y126619D01*
X56456Y125621D01*
X54942Y124850D01*
X53549Y124397D01*
X53549Y132101D01*
G37*
%LPD*%
%LPC*%
G36*
X40347Y137599D02*
X40347Y137599D01*
X40800Y138992D01*
X41571Y140506D01*
X42569Y141880D01*
X43770Y143081D01*
X45144Y144079D01*
X46658Y144850D01*
X48051Y145303D01*
X48051Y137599D01*
X40347Y137599D01*
G37*
%LPD*%
%LPC*%
G36*
X167347Y137599D02*
X167347Y137599D01*
X167800Y138992D01*
X168571Y140506D01*
X169569Y141880D01*
X170770Y143081D01*
X172144Y144079D01*
X173658Y144850D01*
X175051Y145303D01*
X175051Y137599D01*
X167347Y137599D01*
G37*
%LPD*%
%LPC*%
G36*
X173658Y124850D02*
X173658Y124850D01*
X172144Y125621D01*
X170770Y126619D01*
X169569Y127820D01*
X168571Y129194D01*
X167800Y130708D01*
X167347Y132101D01*
X175051Y132101D01*
X175051Y124397D01*
X173658Y124850D01*
G37*
%LPD*%
%LPC*%
G36*
X46658Y124850D02*
X46658Y124850D01*
X45144Y125621D01*
X43770Y126619D01*
X42569Y127820D01*
X41571Y129194D01*
X40800Y130708D01*
X40347Y132101D01*
X48051Y132101D01*
X48051Y124397D01*
X46658Y124850D01*
G37*
%LPD*%
D10*
X139700Y185420D02*
X139700Y170180D01*
X114300Y170180D02*
X114300Y185420D01*
X88900Y185420D02*
X88900Y170180D01*
D11*
X50800Y19850D03*
X50800Y104850D03*
X50800Y134850D03*
X177800Y19850D03*
X177800Y104850D03*
X177800Y134850D03*
M02*
