G04 EAGLE Gerber RS-274X export*
G75*
%MOMM*%
%FSLAX34Y34*%
%LPD*%
%INSilkscreen Top*%
%IPPOS*%
%AMOC8*
5,1,8,0,0,1.08239X$1,22.5*%
G01*
%ADD10C,0.101600*%
%ADD11C,0.152400*%
%ADD12C,0.127000*%


D10*
X83058Y132985D02*
X92795Y132985D01*
X92795Y132986D02*
X92882Y132988D01*
X92970Y132994D01*
X93056Y133004D01*
X93143Y133017D01*
X93228Y133035D01*
X93313Y133056D01*
X93397Y133081D01*
X93479Y133110D01*
X93560Y133143D01*
X93640Y133179D01*
X93718Y133218D01*
X93794Y133262D01*
X93868Y133308D01*
X93939Y133358D01*
X94009Y133411D01*
X94076Y133467D01*
X94140Y133526D01*
X94202Y133588D01*
X94261Y133652D01*
X94317Y133719D01*
X94370Y133789D01*
X94420Y133860D01*
X94466Y133934D01*
X94510Y134010D01*
X94549Y134088D01*
X94585Y134168D01*
X94618Y134249D01*
X94647Y134331D01*
X94672Y134415D01*
X94693Y134500D01*
X94711Y134585D01*
X94724Y134672D01*
X94734Y134758D01*
X94740Y134846D01*
X94742Y134933D01*
X94742Y140879D02*
X94742Y144125D01*
X94742Y140879D02*
X94740Y140792D01*
X94734Y140704D01*
X94724Y140618D01*
X94711Y140531D01*
X94693Y140446D01*
X94672Y140361D01*
X94647Y140277D01*
X94618Y140195D01*
X94585Y140114D01*
X94549Y140034D01*
X94510Y139956D01*
X94466Y139880D01*
X94420Y139806D01*
X94370Y139735D01*
X94317Y139665D01*
X94261Y139598D01*
X94202Y139534D01*
X94140Y139472D01*
X94076Y139413D01*
X94009Y139357D01*
X93939Y139304D01*
X93868Y139254D01*
X93794Y139208D01*
X93718Y139164D01*
X93640Y139125D01*
X93560Y139089D01*
X93479Y139056D01*
X93397Y139027D01*
X93313Y139002D01*
X93228Y138981D01*
X93143Y138963D01*
X93056Y138950D01*
X92970Y138940D01*
X92882Y138934D01*
X92795Y138932D01*
X89549Y138932D01*
X89448Y138934D01*
X89348Y138940D01*
X89248Y138950D01*
X89148Y138963D01*
X89049Y138981D01*
X88950Y139002D01*
X88853Y139027D01*
X88756Y139056D01*
X88661Y139089D01*
X88567Y139125D01*
X88475Y139165D01*
X88384Y139208D01*
X88295Y139255D01*
X88208Y139305D01*
X88122Y139359D01*
X88039Y139416D01*
X87959Y139476D01*
X87880Y139539D01*
X87804Y139606D01*
X87731Y139675D01*
X87661Y139747D01*
X87593Y139821D01*
X87528Y139898D01*
X87467Y139978D01*
X87408Y140060D01*
X87353Y140144D01*
X87301Y140230D01*
X87252Y140318D01*
X87207Y140408D01*
X87165Y140500D01*
X87127Y140593D01*
X87093Y140688D01*
X87062Y140783D01*
X87035Y140880D01*
X87012Y140978D01*
X86992Y141077D01*
X86977Y141177D01*
X86965Y141277D01*
X86957Y141377D01*
X86953Y141478D01*
X86953Y141578D01*
X86957Y141679D01*
X86965Y141779D01*
X86977Y141879D01*
X86992Y141979D01*
X87012Y142078D01*
X87035Y142176D01*
X87062Y142273D01*
X87093Y142368D01*
X87127Y142463D01*
X87165Y142556D01*
X87207Y142648D01*
X87252Y142738D01*
X87301Y142826D01*
X87353Y142912D01*
X87408Y142996D01*
X87467Y143078D01*
X87528Y143158D01*
X87593Y143235D01*
X87661Y143309D01*
X87731Y143381D01*
X87804Y143450D01*
X87880Y143517D01*
X87959Y143580D01*
X88039Y143640D01*
X88122Y143697D01*
X88208Y143751D01*
X88295Y143801D01*
X88384Y143848D01*
X88475Y143891D01*
X88567Y143931D01*
X88661Y143967D01*
X88756Y144000D01*
X88853Y144029D01*
X88950Y144054D01*
X89049Y144075D01*
X89148Y144093D01*
X89248Y144106D01*
X89348Y144116D01*
X89448Y144122D01*
X89549Y144124D01*
X89549Y144125D02*
X90847Y144125D01*
X90847Y138932D01*
X94742Y149464D02*
X85005Y149464D01*
X85005Y149465D02*
X84918Y149467D01*
X84830Y149473D01*
X84744Y149483D01*
X84657Y149496D01*
X84572Y149514D01*
X84487Y149535D01*
X84403Y149560D01*
X84321Y149589D01*
X84240Y149622D01*
X84160Y149658D01*
X84082Y149697D01*
X84006Y149741D01*
X83932Y149787D01*
X83861Y149837D01*
X83791Y149890D01*
X83724Y149946D01*
X83660Y150005D01*
X83598Y150066D01*
X83539Y150131D01*
X83483Y150198D01*
X83430Y150268D01*
X83380Y150339D01*
X83334Y150413D01*
X83291Y150489D01*
X83251Y150567D01*
X83215Y150647D01*
X83182Y150728D01*
X83153Y150810D01*
X83128Y150894D01*
X83107Y150979D01*
X83089Y151064D01*
X83076Y151151D01*
X83066Y151237D01*
X83060Y151325D01*
X83058Y151412D01*
X83058Y151411D02*
X83058Y152061D01*
X86953Y152061D02*
X86953Y148166D01*
X86953Y154347D02*
X86953Y158242D01*
X83058Y155646D02*
X92795Y155646D01*
X92882Y155648D01*
X92970Y155654D01*
X93056Y155664D01*
X93143Y155677D01*
X93228Y155695D01*
X93313Y155716D01*
X93397Y155741D01*
X93479Y155770D01*
X93560Y155803D01*
X93640Y155839D01*
X93718Y155878D01*
X93794Y155922D01*
X93868Y155968D01*
X93939Y156018D01*
X94009Y156071D01*
X94076Y156127D01*
X94140Y156186D01*
X94202Y156248D01*
X94261Y156312D01*
X94317Y156379D01*
X94370Y156449D01*
X94420Y156520D01*
X94466Y156594D01*
X94510Y156670D01*
X94549Y156748D01*
X94585Y156828D01*
X94618Y156909D01*
X94647Y156991D01*
X94672Y157075D01*
X94693Y157160D01*
X94711Y157245D01*
X94724Y157332D01*
X94734Y157418D01*
X94740Y157506D01*
X94742Y157593D01*
X94742Y158242D01*
X120142Y137287D02*
X120142Y134041D01*
X120140Y133954D01*
X120134Y133866D01*
X120124Y133780D01*
X120111Y133693D01*
X120093Y133608D01*
X120072Y133523D01*
X120047Y133439D01*
X120018Y133357D01*
X119985Y133276D01*
X119949Y133196D01*
X119910Y133118D01*
X119866Y133042D01*
X119820Y132968D01*
X119770Y132897D01*
X119717Y132827D01*
X119661Y132760D01*
X119602Y132696D01*
X119540Y132634D01*
X119476Y132575D01*
X119409Y132519D01*
X119339Y132466D01*
X119268Y132416D01*
X119194Y132370D01*
X119118Y132326D01*
X119040Y132287D01*
X118960Y132251D01*
X118879Y132218D01*
X118797Y132189D01*
X118713Y132164D01*
X118628Y132143D01*
X118543Y132125D01*
X118456Y132112D01*
X118370Y132102D01*
X118282Y132096D01*
X118195Y132094D01*
X114300Y132094D01*
X114213Y132096D01*
X114125Y132102D01*
X114039Y132112D01*
X113952Y132125D01*
X113867Y132143D01*
X113782Y132164D01*
X113698Y132189D01*
X113616Y132218D01*
X113535Y132251D01*
X113455Y132287D01*
X113377Y132326D01*
X113301Y132370D01*
X113227Y132416D01*
X113156Y132466D01*
X113086Y132519D01*
X113019Y132575D01*
X112955Y132634D01*
X112893Y132696D01*
X112834Y132760D01*
X112778Y132827D01*
X112725Y132897D01*
X112675Y132968D01*
X112629Y133042D01*
X112585Y133118D01*
X112546Y133196D01*
X112510Y133276D01*
X112477Y133357D01*
X112448Y133439D01*
X112423Y133523D01*
X112402Y133608D01*
X112384Y133693D01*
X112371Y133780D01*
X112361Y133866D01*
X112355Y133954D01*
X112353Y134041D01*
X112353Y137287D01*
X122089Y137287D01*
X122176Y137285D01*
X122264Y137279D01*
X122350Y137269D01*
X122437Y137256D01*
X122522Y137238D01*
X122607Y137217D01*
X122691Y137192D01*
X122773Y137163D01*
X122854Y137130D01*
X122934Y137094D01*
X123012Y137055D01*
X123088Y137011D01*
X123162Y136965D01*
X123233Y136915D01*
X123303Y136862D01*
X123370Y136806D01*
X123434Y136747D01*
X123496Y136685D01*
X123555Y136621D01*
X123611Y136554D01*
X123664Y136484D01*
X123714Y136413D01*
X123760Y136339D01*
X123804Y136263D01*
X123843Y136185D01*
X123879Y136105D01*
X123912Y136024D01*
X123941Y135942D01*
X123966Y135858D01*
X123987Y135773D01*
X124005Y135688D01*
X124018Y135601D01*
X124028Y135515D01*
X124034Y135427D01*
X124036Y135340D01*
X124037Y135340D02*
X124037Y132743D01*
X120142Y142821D02*
X112353Y142821D01*
X112353Y146067D01*
X112355Y146154D01*
X112361Y146242D01*
X112371Y146328D01*
X112384Y146415D01*
X112402Y146500D01*
X112423Y146585D01*
X112448Y146669D01*
X112477Y146751D01*
X112510Y146832D01*
X112546Y146912D01*
X112585Y146990D01*
X112629Y147066D01*
X112675Y147140D01*
X112725Y147211D01*
X112778Y147281D01*
X112834Y147348D01*
X112893Y147412D01*
X112954Y147474D01*
X113019Y147533D01*
X113086Y147589D01*
X113156Y147642D01*
X113227Y147692D01*
X113301Y147738D01*
X113377Y147782D01*
X113455Y147821D01*
X113535Y147857D01*
X113616Y147890D01*
X113698Y147919D01*
X113782Y147944D01*
X113867Y147965D01*
X113952Y147983D01*
X114039Y147996D01*
X114125Y148006D01*
X114213Y148012D01*
X114300Y148014D01*
X120142Y148014D01*
X120142Y158242D02*
X108458Y158242D01*
X120142Y158242D02*
X120142Y154996D01*
X120140Y154909D01*
X120134Y154821D01*
X120124Y154735D01*
X120111Y154648D01*
X120093Y154563D01*
X120072Y154478D01*
X120047Y154394D01*
X120018Y154312D01*
X119985Y154231D01*
X119949Y154151D01*
X119910Y154073D01*
X119866Y153997D01*
X119820Y153923D01*
X119770Y153852D01*
X119717Y153782D01*
X119661Y153715D01*
X119602Y153651D01*
X119540Y153589D01*
X119476Y153530D01*
X119409Y153474D01*
X119339Y153421D01*
X119268Y153371D01*
X119194Y153325D01*
X119118Y153281D01*
X119040Y153242D01*
X118960Y153206D01*
X118879Y153173D01*
X118797Y153144D01*
X118713Y153119D01*
X118628Y153098D01*
X118543Y153080D01*
X118456Y153067D01*
X118370Y153057D01*
X118282Y153051D01*
X118195Y153049D01*
X114300Y153049D01*
X114213Y153051D01*
X114125Y153057D01*
X114039Y153067D01*
X113952Y153080D01*
X113867Y153098D01*
X113782Y153119D01*
X113698Y153144D01*
X113616Y153173D01*
X113535Y153206D01*
X113455Y153242D01*
X113377Y153281D01*
X113301Y153325D01*
X113227Y153371D01*
X113156Y153421D01*
X113086Y153474D01*
X113019Y153530D01*
X112955Y153589D01*
X112893Y153651D01*
X112834Y153715D01*
X112778Y153782D01*
X112725Y153852D01*
X112675Y153923D01*
X112629Y153997D01*
X112585Y154073D01*
X112546Y154151D01*
X112510Y154231D01*
X112477Y154312D01*
X112448Y154394D01*
X112423Y154478D01*
X112402Y154563D01*
X112384Y154648D01*
X112371Y154735D01*
X112361Y154821D01*
X112355Y154909D01*
X112353Y154996D01*
X112353Y158242D01*
X137753Y122234D02*
X145542Y122234D01*
X137753Y122234D02*
X137753Y126129D01*
X139051Y126129D01*
X137753Y129717D02*
X145542Y129717D01*
X134507Y129393D02*
X133858Y129393D01*
X133858Y130042D01*
X134507Y130042D01*
X134507Y129393D01*
X145542Y136248D02*
X145542Y139494D01*
X145542Y136248D02*
X145540Y136161D01*
X145534Y136073D01*
X145524Y135987D01*
X145511Y135900D01*
X145493Y135815D01*
X145472Y135730D01*
X145447Y135646D01*
X145418Y135564D01*
X145385Y135483D01*
X145349Y135403D01*
X145310Y135325D01*
X145266Y135249D01*
X145220Y135175D01*
X145170Y135104D01*
X145117Y135034D01*
X145061Y134967D01*
X145002Y134903D01*
X144940Y134841D01*
X144876Y134782D01*
X144809Y134726D01*
X144739Y134673D01*
X144668Y134623D01*
X144594Y134577D01*
X144518Y134533D01*
X144440Y134494D01*
X144360Y134458D01*
X144279Y134425D01*
X144197Y134396D01*
X144113Y134371D01*
X144028Y134350D01*
X143943Y134332D01*
X143856Y134319D01*
X143770Y134309D01*
X143682Y134303D01*
X143595Y134301D01*
X139700Y134301D01*
X139613Y134303D01*
X139525Y134309D01*
X139439Y134319D01*
X139352Y134332D01*
X139267Y134350D01*
X139182Y134371D01*
X139098Y134396D01*
X139016Y134425D01*
X138935Y134458D01*
X138855Y134494D01*
X138777Y134533D01*
X138701Y134577D01*
X138627Y134623D01*
X138556Y134673D01*
X138486Y134726D01*
X138419Y134782D01*
X138355Y134841D01*
X138293Y134903D01*
X138234Y134967D01*
X138178Y135034D01*
X138125Y135104D01*
X138075Y135175D01*
X138029Y135249D01*
X137985Y135325D01*
X137946Y135403D01*
X137910Y135483D01*
X137877Y135564D01*
X137848Y135646D01*
X137823Y135730D01*
X137802Y135815D01*
X137784Y135900D01*
X137771Y135987D01*
X137761Y136073D01*
X137755Y136161D01*
X137753Y136248D01*
X137753Y139494D01*
X147489Y139494D01*
X147489Y139493D02*
X147576Y139491D01*
X147664Y139485D01*
X147750Y139475D01*
X147837Y139462D01*
X147922Y139444D01*
X148007Y139423D01*
X148091Y139398D01*
X148173Y139369D01*
X148254Y139336D01*
X148334Y139300D01*
X148412Y139261D01*
X148488Y139217D01*
X148562Y139171D01*
X148633Y139121D01*
X148703Y139068D01*
X148770Y139012D01*
X148834Y138953D01*
X148896Y138891D01*
X148955Y138827D01*
X149011Y138760D01*
X149064Y138690D01*
X149114Y138619D01*
X149160Y138545D01*
X149204Y138469D01*
X149243Y138391D01*
X149279Y138311D01*
X149312Y138230D01*
X149341Y138148D01*
X149366Y138064D01*
X149387Y137979D01*
X149405Y137894D01*
X149418Y137807D01*
X149428Y137721D01*
X149434Y137633D01*
X149436Y137546D01*
X149437Y137546D02*
X149437Y134950D01*
X145542Y145028D02*
X133858Y145028D01*
X137753Y145028D02*
X137753Y148273D01*
X137755Y148360D01*
X137761Y148448D01*
X137771Y148534D01*
X137784Y148621D01*
X137802Y148706D01*
X137823Y148791D01*
X137848Y148875D01*
X137877Y148957D01*
X137910Y149038D01*
X137946Y149118D01*
X137985Y149196D01*
X138029Y149272D01*
X138075Y149346D01*
X138125Y149417D01*
X138178Y149487D01*
X138234Y149554D01*
X138293Y149618D01*
X138354Y149680D01*
X138419Y149739D01*
X138486Y149795D01*
X138556Y149848D01*
X138627Y149898D01*
X138701Y149944D01*
X138777Y149988D01*
X138855Y150027D01*
X138935Y150063D01*
X139016Y150096D01*
X139098Y150125D01*
X139182Y150150D01*
X139267Y150171D01*
X139352Y150189D01*
X139439Y150202D01*
X139525Y150212D01*
X139613Y150218D01*
X139700Y150220D01*
X139700Y150221D02*
X145542Y150221D01*
X137753Y154347D02*
X137753Y158242D01*
X133858Y155646D02*
X143595Y155646D01*
X143682Y155648D01*
X143770Y155654D01*
X143856Y155664D01*
X143943Y155677D01*
X144028Y155695D01*
X144113Y155716D01*
X144197Y155741D01*
X144279Y155770D01*
X144360Y155803D01*
X144440Y155839D01*
X144518Y155878D01*
X144594Y155922D01*
X144668Y155968D01*
X144739Y156018D01*
X144809Y156071D01*
X144876Y156127D01*
X144940Y156186D01*
X145002Y156248D01*
X145061Y156312D01*
X145117Y156379D01*
X145170Y156449D01*
X145220Y156520D01*
X145266Y156594D01*
X145310Y156670D01*
X145349Y156748D01*
X145385Y156828D01*
X145418Y156909D01*
X145447Y156991D01*
X145472Y157075D01*
X145493Y157160D01*
X145511Y157245D01*
X145524Y157332D01*
X145534Y157418D01*
X145540Y157506D01*
X145542Y157593D01*
X145542Y158242D01*
D11*
X146050Y165100D02*
X133350Y165100D01*
X127000Y171450D01*
X127000Y184150D01*
X133350Y190500D01*
X127000Y171450D02*
X120650Y165100D01*
X107950Y165100D01*
X101600Y171450D01*
X101600Y184150D01*
X107950Y190500D01*
X120650Y190500D01*
X127000Y184150D01*
X152400Y184150D02*
X152400Y171450D01*
X146050Y165100D01*
X152400Y184150D02*
X146050Y190500D01*
X133350Y190500D01*
X101600Y171450D02*
X95250Y165100D01*
X82550Y165100D01*
X76200Y171450D01*
X76200Y184150D01*
X82550Y190500D01*
X95250Y190500D01*
X101600Y184150D01*
D12*
X83185Y200660D02*
X83185Y205740D01*
X83187Y205851D01*
X83193Y205961D01*
X83202Y206072D01*
X83216Y206182D01*
X83233Y206291D01*
X83254Y206400D01*
X83279Y206508D01*
X83308Y206615D01*
X83340Y206721D01*
X83376Y206826D01*
X83416Y206929D01*
X83459Y207031D01*
X83506Y207132D01*
X83557Y207231D01*
X83610Y207328D01*
X83667Y207422D01*
X83728Y207515D01*
X83791Y207606D01*
X83858Y207695D01*
X83928Y207781D01*
X84001Y207864D01*
X84076Y207946D01*
X84154Y208024D01*
X84236Y208099D01*
X84319Y208172D01*
X84405Y208242D01*
X84494Y208309D01*
X84585Y208372D01*
X84678Y208433D01*
X84773Y208490D01*
X84869Y208543D01*
X84968Y208594D01*
X85069Y208641D01*
X85171Y208684D01*
X85274Y208724D01*
X85379Y208760D01*
X85485Y208792D01*
X85592Y208821D01*
X85700Y208846D01*
X85809Y208867D01*
X85918Y208884D01*
X86028Y208898D01*
X86139Y208907D01*
X86249Y208913D01*
X86360Y208915D01*
X86471Y208913D01*
X86581Y208907D01*
X86692Y208898D01*
X86802Y208884D01*
X86911Y208867D01*
X87020Y208846D01*
X87128Y208821D01*
X87235Y208792D01*
X87341Y208760D01*
X87446Y208724D01*
X87549Y208684D01*
X87651Y208641D01*
X87752Y208594D01*
X87851Y208543D01*
X87948Y208490D01*
X88042Y208433D01*
X88135Y208372D01*
X88226Y208309D01*
X88315Y208242D01*
X88401Y208172D01*
X88484Y208099D01*
X88566Y208024D01*
X88644Y207946D01*
X88719Y207864D01*
X88792Y207781D01*
X88862Y207695D01*
X88929Y207606D01*
X88992Y207515D01*
X89053Y207422D01*
X89110Y207328D01*
X89163Y207231D01*
X89214Y207132D01*
X89261Y207031D01*
X89304Y206929D01*
X89344Y206826D01*
X89380Y206721D01*
X89412Y206615D01*
X89441Y206508D01*
X89466Y206400D01*
X89487Y206291D01*
X89504Y206182D01*
X89518Y206072D01*
X89527Y205961D01*
X89533Y205851D01*
X89535Y205740D01*
X89535Y200660D01*
X89533Y200549D01*
X89527Y200439D01*
X89518Y200328D01*
X89504Y200218D01*
X89487Y200109D01*
X89466Y200000D01*
X89441Y199892D01*
X89412Y199785D01*
X89380Y199679D01*
X89344Y199574D01*
X89304Y199471D01*
X89261Y199369D01*
X89214Y199268D01*
X89163Y199169D01*
X89110Y199072D01*
X89053Y198978D01*
X88992Y198885D01*
X88929Y198794D01*
X88862Y198705D01*
X88792Y198619D01*
X88719Y198536D01*
X88644Y198454D01*
X88566Y198376D01*
X88484Y198301D01*
X88401Y198228D01*
X88315Y198158D01*
X88226Y198091D01*
X88135Y198028D01*
X88042Y197967D01*
X87947Y197910D01*
X87851Y197857D01*
X87752Y197806D01*
X87651Y197759D01*
X87549Y197716D01*
X87446Y197676D01*
X87341Y197640D01*
X87235Y197608D01*
X87128Y197579D01*
X87020Y197554D01*
X86911Y197533D01*
X86802Y197516D01*
X86692Y197502D01*
X86581Y197493D01*
X86471Y197487D01*
X86360Y197485D01*
X86249Y197487D01*
X86139Y197493D01*
X86028Y197502D01*
X85918Y197516D01*
X85809Y197533D01*
X85700Y197554D01*
X85592Y197579D01*
X85485Y197608D01*
X85379Y197640D01*
X85274Y197676D01*
X85171Y197716D01*
X85069Y197759D01*
X84968Y197806D01*
X84869Y197857D01*
X84773Y197910D01*
X84678Y197967D01*
X84585Y198028D01*
X84494Y198091D01*
X84405Y198158D01*
X84319Y198228D01*
X84236Y198301D01*
X84154Y198376D01*
X84076Y198454D01*
X84001Y198536D01*
X83928Y198619D01*
X83858Y198705D01*
X83791Y198794D01*
X83728Y198885D01*
X83667Y198978D01*
X83610Y199073D01*
X83557Y199169D01*
X83506Y199268D01*
X83459Y199369D01*
X83416Y199471D01*
X83376Y199574D01*
X83340Y199679D01*
X83308Y199785D01*
X83279Y199892D01*
X83254Y200000D01*
X83233Y200109D01*
X83216Y200218D01*
X83202Y200328D01*
X83193Y200439D01*
X83187Y200549D01*
X83185Y200660D01*
X94996Y200660D02*
X94996Y208915D01*
X94996Y200660D02*
X94998Y200549D01*
X95004Y200439D01*
X95013Y200328D01*
X95027Y200218D01*
X95044Y200109D01*
X95065Y200000D01*
X95090Y199892D01*
X95119Y199785D01*
X95151Y199679D01*
X95187Y199574D01*
X95227Y199471D01*
X95270Y199369D01*
X95317Y199268D01*
X95368Y199169D01*
X95421Y199073D01*
X95478Y198978D01*
X95539Y198885D01*
X95602Y198794D01*
X95669Y198705D01*
X95739Y198619D01*
X95812Y198536D01*
X95887Y198454D01*
X95965Y198376D01*
X96047Y198301D01*
X96130Y198228D01*
X96216Y198158D01*
X96305Y198091D01*
X96396Y198028D01*
X96489Y197967D01*
X96584Y197910D01*
X96680Y197857D01*
X96779Y197806D01*
X96880Y197759D01*
X96982Y197716D01*
X97085Y197676D01*
X97190Y197640D01*
X97296Y197608D01*
X97403Y197579D01*
X97511Y197554D01*
X97620Y197533D01*
X97729Y197516D01*
X97839Y197502D01*
X97950Y197493D01*
X98060Y197487D01*
X98171Y197485D01*
X98282Y197487D01*
X98392Y197493D01*
X98503Y197502D01*
X98613Y197516D01*
X98722Y197533D01*
X98831Y197554D01*
X98939Y197579D01*
X99046Y197608D01*
X99152Y197640D01*
X99257Y197676D01*
X99360Y197716D01*
X99462Y197759D01*
X99563Y197806D01*
X99662Y197857D01*
X99758Y197910D01*
X99853Y197967D01*
X99946Y198028D01*
X100037Y198091D01*
X100126Y198158D01*
X100212Y198228D01*
X100295Y198301D01*
X100377Y198376D01*
X100455Y198454D01*
X100530Y198536D01*
X100603Y198619D01*
X100673Y198705D01*
X100740Y198794D01*
X100803Y198885D01*
X100864Y198978D01*
X100921Y199072D01*
X100974Y199169D01*
X101025Y199268D01*
X101072Y199369D01*
X101115Y199471D01*
X101155Y199574D01*
X101191Y199679D01*
X101223Y199785D01*
X101252Y199892D01*
X101277Y200000D01*
X101298Y200109D01*
X101315Y200218D01*
X101329Y200328D01*
X101338Y200439D01*
X101344Y200549D01*
X101346Y200660D01*
X101346Y208915D01*
X109220Y208915D02*
X109220Y197485D01*
X106045Y208915D02*
X112395Y208915D01*
X117285Y208915D02*
X117285Y197485D01*
X117285Y208915D02*
X120460Y208915D01*
X120571Y208913D01*
X120681Y208907D01*
X120792Y208898D01*
X120902Y208884D01*
X121011Y208867D01*
X121120Y208846D01*
X121228Y208821D01*
X121335Y208792D01*
X121441Y208760D01*
X121546Y208724D01*
X121649Y208684D01*
X121751Y208641D01*
X121852Y208594D01*
X121951Y208543D01*
X122048Y208490D01*
X122142Y208433D01*
X122235Y208372D01*
X122326Y208309D01*
X122415Y208242D01*
X122501Y208172D01*
X122584Y208099D01*
X122666Y208024D01*
X122744Y207946D01*
X122819Y207864D01*
X122892Y207781D01*
X122962Y207695D01*
X123029Y207606D01*
X123092Y207515D01*
X123153Y207422D01*
X123210Y207327D01*
X123263Y207231D01*
X123314Y207132D01*
X123361Y207031D01*
X123404Y206929D01*
X123444Y206826D01*
X123480Y206721D01*
X123512Y206615D01*
X123541Y206508D01*
X123566Y206400D01*
X123587Y206291D01*
X123604Y206182D01*
X123618Y206072D01*
X123627Y205961D01*
X123633Y205851D01*
X123635Y205740D01*
X123633Y205629D01*
X123627Y205519D01*
X123618Y205408D01*
X123604Y205298D01*
X123587Y205189D01*
X123566Y205080D01*
X123541Y204972D01*
X123512Y204865D01*
X123480Y204759D01*
X123444Y204654D01*
X123404Y204551D01*
X123361Y204449D01*
X123314Y204348D01*
X123263Y204249D01*
X123210Y204152D01*
X123153Y204058D01*
X123092Y203965D01*
X123029Y203874D01*
X122962Y203785D01*
X122892Y203699D01*
X122819Y203616D01*
X122744Y203534D01*
X122666Y203456D01*
X122584Y203381D01*
X122501Y203308D01*
X122415Y203238D01*
X122326Y203171D01*
X122235Y203108D01*
X122142Y203047D01*
X122047Y202990D01*
X121951Y202937D01*
X121852Y202886D01*
X121751Y202839D01*
X121649Y202796D01*
X121546Y202756D01*
X121441Y202720D01*
X121335Y202688D01*
X121228Y202659D01*
X121120Y202634D01*
X121011Y202613D01*
X120902Y202596D01*
X120792Y202582D01*
X120681Y202573D01*
X120571Y202567D01*
X120460Y202565D01*
X117285Y202565D01*
X128524Y200660D02*
X128524Y208915D01*
X128524Y200660D02*
X128526Y200549D01*
X128532Y200439D01*
X128541Y200328D01*
X128555Y200218D01*
X128572Y200109D01*
X128593Y200000D01*
X128618Y199892D01*
X128647Y199785D01*
X128679Y199679D01*
X128715Y199574D01*
X128755Y199471D01*
X128798Y199369D01*
X128845Y199268D01*
X128896Y199169D01*
X128949Y199073D01*
X129006Y198978D01*
X129067Y198885D01*
X129130Y198794D01*
X129197Y198705D01*
X129267Y198619D01*
X129340Y198536D01*
X129415Y198454D01*
X129493Y198376D01*
X129575Y198301D01*
X129658Y198228D01*
X129744Y198158D01*
X129833Y198091D01*
X129924Y198028D01*
X130017Y197967D01*
X130112Y197910D01*
X130208Y197857D01*
X130307Y197806D01*
X130408Y197759D01*
X130510Y197716D01*
X130613Y197676D01*
X130718Y197640D01*
X130824Y197608D01*
X130931Y197579D01*
X131039Y197554D01*
X131148Y197533D01*
X131257Y197516D01*
X131367Y197502D01*
X131478Y197493D01*
X131588Y197487D01*
X131699Y197485D01*
X131810Y197487D01*
X131920Y197493D01*
X132031Y197502D01*
X132141Y197516D01*
X132250Y197533D01*
X132359Y197554D01*
X132467Y197579D01*
X132574Y197608D01*
X132680Y197640D01*
X132785Y197676D01*
X132888Y197716D01*
X132990Y197759D01*
X133091Y197806D01*
X133190Y197857D01*
X133286Y197910D01*
X133381Y197967D01*
X133474Y198028D01*
X133565Y198091D01*
X133654Y198158D01*
X133740Y198228D01*
X133823Y198301D01*
X133905Y198376D01*
X133983Y198454D01*
X134058Y198536D01*
X134131Y198619D01*
X134201Y198705D01*
X134268Y198794D01*
X134331Y198885D01*
X134392Y198978D01*
X134449Y199072D01*
X134502Y199169D01*
X134553Y199268D01*
X134600Y199369D01*
X134643Y199471D01*
X134683Y199574D01*
X134719Y199679D01*
X134751Y199785D01*
X134780Y199892D01*
X134805Y200000D01*
X134826Y200109D01*
X134843Y200218D01*
X134857Y200328D01*
X134866Y200439D01*
X134872Y200549D01*
X134874Y200660D01*
X134874Y208915D01*
X142748Y208915D02*
X142748Y197485D01*
X139573Y208915D02*
X145923Y208915D01*
X95800Y9850D02*
X65800Y9850D01*
X35800Y9850D01*
X5800Y9850D01*
X95800Y9850D02*
X95800Y114850D01*
X48800Y114850D01*
X5800Y114850D01*
X5800Y9850D01*
X19177Y69850D02*
X19187Y70626D01*
X19215Y71402D01*
X19263Y72176D01*
X19329Y72950D01*
X19415Y73721D01*
X19519Y74490D01*
X19643Y75256D01*
X19785Y76019D01*
X19945Y76779D01*
X20125Y77534D01*
X20323Y78284D01*
X20539Y79030D01*
X20773Y79770D01*
X21026Y80503D01*
X21296Y81231D01*
X21584Y81952D01*
X21890Y82665D01*
X22213Y83371D01*
X22554Y84068D01*
X22911Y84757D01*
X23285Y85437D01*
X23676Y86107D01*
X24083Y86768D01*
X24506Y87419D01*
X24946Y88059D01*
X25400Y88688D01*
X25870Y89305D01*
X26355Y89911D01*
X26855Y90505D01*
X27369Y91087D01*
X27897Y91655D01*
X28439Y92211D01*
X28995Y92753D01*
X29563Y93281D01*
X30145Y93795D01*
X30739Y94295D01*
X31345Y94780D01*
X31962Y95250D01*
X32591Y95704D01*
X33231Y96144D01*
X33882Y96567D01*
X34543Y96974D01*
X35213Y97365D01*
X35893Y97739D01*
X36582Y98096D01*
X37279Y98437D01*
X37985Y98760D01*
X38698Y99066D01*
X39419Y99354D01*
X40147Y99624D01*
X40880Y99877D01*
X41620Y100111D01*
X42366Y100327D01*
X43116Y100525D01*
X43871Y100705D01*
X44631Y100865D01*
X45394Y101007D01*
X46160Y101131D01*
X46929Y101235D01*
X47700Y101321D01*
X48474Y101387D01*
X49248Y101435D01*
X50024Y101463D01*
X50800Y101473D01*
X51576Y101463D01*
X52352Y101435D01*
X53126Y101387D01*
X53900Y101321D01*
X54671Y101235D01*
X55440Y101131D01*
X56206Y101007D01*
X56969Y100865D01*
X57729Y100705D01*
X58484Y100525D01*
X59234Y100327D01*
X59980Y100111D01*
X60720Y99877D01*
X61453Y99624D01*
X62181Y99354D01*
X62902Y99066D01*
X63615Y98760D01*
X64321Y98437D01*
X65018Y98096D01*
X65707Y97739D01*
X66387Y97365D01*
X67057Y96974D01*
X67718Y96567D01*
X68369Y96144D01*
X69009Y95704D01*
X69638Y95250D01*
X70255Y94780D01*
X70861Y94295D01*
X71455Y93795D01*
X72037Y93281D01*
X72605Y92753D01*
X73161Y92211D01*
X73703Y91655D01*
X74231Y91087D01*
X74745Y90505D01*
X75245Y89911D01*
X75730Y89305D01*
X76200Y88688D01*
X76654Y88059D01*
X77094Y87419D01*
X77517Y86768D01*
X77924Y86107D01*
X78315Y85437D01*
X78689Y84757D01*
X79046Y84068D01*
X79387Y83371D01*
X79710Y82665D01*
X80016Y81952D01*
X80304Y81231D01*
X80574Y80503D01*
X80827Y79770D01*
X81061Y79030D01*
X81277Y78284D01*
X81475Y77534D01*
X81655Y76779D01*
X81815Y76019D01*
X81957Y75256D01*
X82081Y74490D01*
X82185Y73721D01*
X82271Y72950D01*
X82337Y72176D01*
X82385Y71402D01*
X82413Y70626D01*
X82423Y69850D01*
X82413Y69074D01*
X82385Y68298D01*
X82337Y67524D01*
X82271Y66750D01*
X82185Y65979D01*
X82081Y65210D01*
X81957Y64444D01*
X81815Y63681D01*
X81655Y62921D01*
X81475Y62166D01*
X81277Y61416D01*
X81061Y60670D01*
X80827Y59930D01*
X80574Y59197D01*
X80304Y58469D01*
X80016Y57748D01*
X79710Y57035D01*
X79387Y56329D01*
X79046Y55632D01*
X78689Y54943D01*
X78315Y54263D01*
X77924Y53593D01*
X77517Y52932D01*
X77094Y52281D01*
X76654Y51641D01*
X76200Y51012D01*
X75730Y50395D01*
X75245Y49789D01*
X74745Y49195D01*
X74231Y48613D01*
X73703Y48045D01*
X73161Y47489D01*
X72605Y46947D01*
X72037Y46419D01*
X71455Y45905D01*
X70861Y45405D01*
X70255Y44920D01*
X69638Y44450D01*
X69009Y43996D01*
X68369Y43556D01*
X67718Y43133D01*
X67057Y42726D01*
X66387Y42335D01*
X65707Y41961D01*
X65018Y41604D01*
X64321Y41263D01*
X63615Y40940D01*
X62902Y40634D01*
X62181Y40346D01*
X61453Y40076D01*
X60720Y39823D01*
X59980Y39589D01*
X59234Y39373D01*
X58484Y39175D01*
X57729Y38995D01*
X56969Y38835D01*
X56206Y38693D01*
X55440Y38569D01*
X54671Y38465D01*
X53900Y38379D01*
X53126Y38313D01*
X52352Y38265D01*
X51576Y38237D01*
X50800Y38227D01*
X50024Y38237D01*
X49248Y38265D01*
X48474Y38313D01*
X47700Y38379D01*
X46929Y38465D01*
X46160Y38569D01*
X45394Y38693D01*
X44631Y38835D01*
X43871Y38995D01*
X43116Y39175D01*
X42366Y39373D01*
X41620Y39589D01*
X40880Y39823D01*
X40147Y40076D01*
X39419Y40346D01*
X38698Y40634D01*
X37985Y40940D01*
X37279Y41263D01*
X36582Y41604D01*
X35893Y41961D01*
X35213Y42335D01*
X34543Y42726D01*
X33882Y43133D01*
X33231Y43556D01*
X32591Y43996D01*
X31962Y44450D01*
X31345Y44920D01*
X30739Y45405D01*
X30145Y45905D01*
X29563Y46419D01*
X28995Y46947D01*
X28439Y47489D01*
X27897Y48045D01*
X27369Y48613D01*
X26855Y49195D01*
X26355Y49789D01*
X25870Y50395D01*
X25400Y51012D01*
X24946Y51641D01*
X24506Y52281D01*
X24083Y52932D01*
X23676Y53593D01*
X23285Y54263D01*
X22911Y54943D01*
X22554Y55632D01*
X22213Y56329D01*
X21890Y57035D01*
X21584Y57748D01*
X21296Y58469D01*
X21026Y59197D01*
X20773Y59930D01*
X20539Y60670D01*
X20323Y61416D01*
X20125Y62166D01*
X19945Y62921D01*
X19785Y63681D01*
X19643Y64444D01*
X19519Y65210D01*
X19415Y65979D01*
X19329Y66750D01*
X19263Y67524D01*
X19215Y68298D01*
X19187Y69074D01*
X19177Y69850D01*
X65800Y29850D02*
X65800Y9850D01*
X65800Y29850D02*
X35800Y29850D01*
X35800Y9850D01*
X23893Y69850D02*
X23901Y70510D01*
X23925Y71170D01*
X23966Y71829D01*
X24023Y72487D01*
X24095Y73144D01*
X24184Y73798D01*
X24289Y74450D01*
X24410Y75099D01*
X24547Y75745D01*
X24699Y76388D01*
X24868Y77026D01*
X25052Y77661D01*
X25251Y78290D01*
X25466Y78915D01*
X25696Y79534D01*
X25941Y80147D01*
X26201Y80754D01*
X26476Y81354D01*
X26766Y81948D01*
X27070Y82534D01*
X27389Y83112D01*
X27721Y83683D01*
X28068Y84245D01*
X28428Y84799D01*
X28801Y85343D01*
X29188Y85878D01*
X29588Y86404D01*
X30001Y86920D01*
X30426Y87425D01*
X30863Y87920D01*
X31313Y88403D01*
X31774Y88876D01*
X32247Y89337D01*
X32730Y89787D01*
X33225Y90224D01*
X33730Y90649D01*
X34246Y91062D01*
X34772Y91462D01*
X35307Y91849D01*
X35851Y92222D01*
X36405Y92582D01*
X36967Y92929D01*
X37538Y93261D01*
X38116Y93580D01*
X38702Y93884D01*
X39296Y94174D01*
X39896Y94449D01*
X40503Y94709D01*
X41116Y94954D01*
X41735Y95184D01*
X42360Y95399D01*
X42989Y95598D01*
X43624Y95782D01*
X44262Y95951D01*
X44905Y96103D01*
X45551Y96240D01*
X46200Y96361D01*
X46852Y96466D01*
X47506Y96555D01*
X48163Y96627D01*
X48821Y96684D01*
X49480Y96725D01*
X50140Y96749D01*
X50800Y96757D01*
X51460Y96749D01*
X52120Y96725D01*
X52779Y96684D01*
X53437Y96627D01*
X54094Y96555D01*
X54748Y96466D01*
X55400Y96361D01*
X56049Y96240D01*
X56695Y96103D01*
X57338Y95951D01*
X57976Y95782D01*
X58611Y95598D01*
X59240Y95399D01*
X59865Y95184D01*
X60484Y94954D01*
X61097Y94709D01*
X61704Y94449D01*
X62304Y94174D01*
X62898Y93884D01*
X63484Y93580D01*
X64062Y93261D01*
X64633Y92929D01*
X65195Y92582D01*
X65749Y92222D01*
X66293Y91849D01*
X66828Y91462D01*
X67354Y91062D01*
X67870Y90649D01*
X68375Y90224D01*
X68870Y89787D01*
X69353Y89337D01*
X69826Y88876D01*
X70287Y88403D01*
X70737Y87920D01*
X71174Y87425D01*
X71599Y86920D01*
X72012Y86404D01*
X72412Y85878D01*
X72799Y85343D01*
X73172Y84799D01*
X73532Y84245D01*
X73879Y83683D01*
X74211Y83112D01*
X74530Y82534D01*
X74834Y81948D01*
X75124Y81354D01*
X75399Y80754D01*
X75659Y80147D01*
X75904Y79534D01*
X76134Y78915D01*
X76349Y78290D01*
X76548Y77661D01*
X76732Y77026D01*
X76901Y76388D01*
X77053Y75745D01*
X77190Y75099D01*
X77311Y74450D01*
X77416Y73798D01*
X77505Y73144D01*
X77577Y72487D01*
X77634Y71829D01*
X77675Y71170D01*
X77699Y70510D01*
X77707Y69850D01*
X77699Y69190D01*
X77675Y68530D01*
X77634Y67871D01*
X77577Y67213D01*
X77505Y66556D01*
X77416Y65902D01*
X77311Y65250D01*
X77190Y64601D01*
X77053Y63955D01*
X76901Y63312D01*
X76732Y62674D01*
X76548Y62039D01*
X76349Y61410D01*
X76134Y60785D01*
X75904Y60166D01*
X75659Y59553D01*
X75399Y58946D01*
X75124Y58346D01*
X74834Y57752D01*
X74530Y57166D01*
X74211Y56588D01*
X73879Y56017D01*
X73532Y55455D01*
X73172Y54901D01*
X72799Y54357D01*
X72412Y53822D01*
X72012Y53296D01*
X71599Y52780D01*
X71174Y52275D01*
X70737Y51780D01*
X70287Y51297D01*
X69826Y50824D01*
X69353Y50363D01*
X68870Y49913D01*
X68375Y49476D01*
X67870Y49051D01*
X67354Y48638D01*
X66828Y48238D01*
X66293Y47851D01*
X65749Y47478D01*
X65195Y47118D01*
X64633Y46771D01*
X64062Y46439D01*
X63484Y46120D01*
X62898Y45816D01*
X62304Y45526D01*
X61704Y45251D01*
X61097Y44991D01*
X60484Y44746D01*
X59865Y44516D01*
X59240Y44301D01*
X58611Y44102D01*
X57976Y43918D01*
X57338Y43749D01*
X56695Y43597D01*
X56049Y43460D01*
X55400Y43339D01*
X54748Y43234D01*
X54094Y43145D01*
X53437Y43073D01*
X52779Y43016D01*
X52120Y42975D01*
X51460Y42951D01*
X50800Y42943D01*
X50140Y42951D01*
X49480Y42975D01*
X48821Y43016D01*
X48163Y43073D01*
X47506Y43145D01*
X46852Y43234D01*
X46200Y43339D01*
X45551Y43460D01*
X44905Y43597D01*
X44262Y43749D01*
X43624Y43918D01*
X42989Y44102D01*
X42360Y44301D01*
X41735Y44516D01*
X41116Y44746D01*
X40503Y44991D01*
X39896Y45251D01*
X39296Y45526D01*
X38702Y45816D01*
X38116Y46120D01*
X37538Y46439D01*
X36967Y46771D01*
X36405Y47118D01*
X35851Y47478D01*
X35307Y47851D01*
X34772Y48238D01*
X34246Y48638D01*
X33730Y49051D01*
X33225Y49476D01*
X32730Y49913D01*
X32247Y50363D01*
X31774Y50824D01*
X31313Y51297D01*
X30863Y51780D01*
X30426Y52275D01*
X30001Y52780D01*
X29588Y53296D01*
X29188Y53822D01*
X28801Y54357D01*
X28428Y54901D01*
X28068Y55455D01*
X27721Y56017D01*
X27389Y56588D01*
X27070Y57166D01*
X26766Y57752D01*
X26476Y58346D01*
X26201Y58946D01*
X25941Y59553D01*
X25696Y60166D01*
X25466Y60785D01*
X25251Y61410D01*
X25052Y62039D01*
X24868Y62674D01*
X24699Y63312D01*
X24547Y63955D01*
X24410Y64601D01*
X24289Y65250D01*
X24184Y65902D01*
X24095Y66556D01*
X24023Y67213D01*
X23966Y67871D01*
X23925Y68530D01*
X23901Y69190D01*
X23893Y69850D01*
X52800Y115850D02*
X52800Y136850D01*
X48800Y136850D01*
X48800Y114850D01*
D10*
X24892Y121158D02*
X13208Y121158D01*
X24892Y121158D02*
X24892Y126351D01*
X26190Y130167D02*
X26190Y135359D01*
X21646Y139804D02*
X16454Y139804D01*
X16341Y139806D01*
X16228Y139812D01*
X16115Y139822D01*
X16002Y139836D01*
X15890Y139853D01*
X15779Y139875D01*
X15669Y139900D01*
X15559Y139930D01*
X15451Y139963D01*
X15344Y140000D01*
X15238Y140040D01*
X15134Y140085D01*
X15031Y140133D01*
X14930Y140184D01*
X14831Y140239D01*
X14734Y140297D01*
X14639Y140359D01*
X14546Y140424D01*
X14456Y140492D01*
X14368Y140563D01*
X14282Y140638D01*
X14199Y140715D01*
X14119Y140795D01*
X14042Y140878D01*
X13967Y140964D01*
X13896Y141052D01*
X13828Y141142D01*
X13763Y141235D01*
X13701Y141330D01*
X13643Y141427D01*
X13588Y141526D01*
X13537Y141627D01*
X13489Y141730D01*
X13444Y141834D01*
X13404Y141940D01*
X13367Y142047D01*
X13334Y142155D01*
X13304Y142265D01*
X13279Y142375D01*
X13257Y142486D01*
X13240Y142598D01*
X13226Y142711D01*
X13216Y142824D01*
X13210Y142937D01*
X13208Y143050D01*
X13210Y143163D01*
X13216Y143276D01*
X13226Y143389D01*
X13240Y143502D01*
X13257Y143614D01*
X13279Y143725D01*
X13304Y143835D01*
X13334Y143945D01*
X13367Y144053D01*
X13404Y144160D01*
X13444Y144266D01*
X13489Y144370D01*
X13537Y144473D01*
X13588Y144574D01*
X13643Y144673D01*
X13701Y144770D01*
X13763Y144865D01*
X13828Y144958D01*
X13896Y145048D01*
X13967Y145136D01*
X14042Y145222D01*
X14119Y145305D01*
X14199Y145385D01*
X14282Y145462D01*
X14368Y145537D01*
X14456Y145608D01*
X14546Y145676D01*
X14639Y145741D01*
X14734Y145803D01*
X14831Y145861D01*
X14930Y145916D01*
X15031Y145967D01*
X15134Y146015D01*
X15238Y146060D01*
X15344Y146100D01*
X15451Y146137D01*
X15559Y146170D01*
X15669Y146200D01*
X15779Y146225D01*
X15890Y146247D01*
X16002Y146264D01*
X16115Y146278D01*
X16228Y146288D01*
X16341Y146294D01*
X16454Y146296D01*
X21646Y146296D01*
X21759Y146294D01*
X21872Y146288D01*
X21985Y146278D01*
X22098Y146264D01*
X22210Y146247D01*
X22321Y146225D01*
X22431Y146200D01*
X22541Y146170D01*
X22649Y146137D01*
X22756Y146100D01*
X22862Y146060D01*
X22966Y146015D01*
X23069Y145967D01*
X23170Y145916D01*
X23269Y145861D01*
X23366Y145803D01*
X23461Y145741D01*
X23554Y145676D01*
X23644Y145608D01*
X23732Y145537D01*
X23818Y145462D01*
X23901Y145385D01*
X23981Y145305D01*
X24058Y145222D01*
X24133Y145136D01*
X24204Y145048D01*
X24272Y144958D01*
X24337Y144865D01*
X24399Y144770D01*
X24457Y144673D01*
X24512Y144574D01*
X24563Y144473D01*
X24611Y144370D01*
X24656Y144266D01*
X24696Y144160D01*
X24733Y144053D01*
X24766Y143945D01*
X24796Y143835D01*
X24821Y143725D01*
X24843Y143614D01*
X24860Y143502D01*
X24874Y143389D01*
X24884Y143276D01*
X24890Y143163D01*
X24892Y143050D01*
X24890Y142937D01*
X24884Y142824D01*
X24874Y142711D01*
X24860Y142598D01*
X24843Y142486D01*
X24821Y142375D01*
X24796Y142265D01*
X24766Y142155D01*
X24733Y142047D01*
X24696Y141940D01*
X24656Y141834D01*
X24611Y141730D01*
X24563Y141627D01*
X24512Y141526D01*
X24457Y141427D01*
X24399Y141330D01*
X24337Y141235D01*
X24272Y141142D01*
X24204Y141052D01*
X24133Y140964D01*
X24058Y140878D01*
X23981Y140795D01*
X23901Y140715D01*
X23818Y140638D01*
X23732Y140563D01*
X23644Y140492D01*
X23554Y140424D01*
X23461Y140359D01*
X23366Y140297D01*
X23269Y140239D01*
X23170Y140184D01*
X23069Y140133D01*
X22966Y140085D01*
X22862Y140040D01*
X22756Y140000D01*
X22649Y139963D01*
X22541Y139930D01*
X22431Y139900D01*
X22321Y139875D01*
X22210Y139853D01*
X22098Y139836D01*
X21985Y139822D01*
X21872Y139812D01*
X21759Y139806D01*
X21646Y139804D01*
X21646Y151615D02*
X13208Y151615D01*
X21646Y151615D02*
X21759Y151617D01*
X21872Y151623D01*
X21985Y151633D01*
X22098Y151647D01*
X22210Y151664D01*
X22321Y151686D01*
X22431Y151711D01*
X22541Y151741D01*
X22649Y151774D01*
X22756Y151811D01*
X22862Y151851D01*
X22966Y151896D01*
X23069Y151944D01*
X23170Y151995D01*
X23269Y152050D01*
X23366Y152108D01*
X23461Y152170D01*
X23554Y152235D01*
X23644Y152303D01*
X23732Y152374D01*
X23818Y152449D01*
X23901Y152526D01*
X23981Y152606D01*
X24058Y152689D01*
X24133Y152775D01*
X24204Y152863D01*
X24272Y152953D01*
X24337Y153046D01*
X24399Y153141D01*
X24457Y153238D01*
X24512Y153337D01*
X24563Y153438D01*
X24611Y153541D01*
X24656Y153645D01*
X24696Y153751D01*
X24733Y153858D01*
X24766Y153966D01*
X24796Y154076D01*
X24821Y154186D01*
X24843Y154297D01*
X24860Y154409D01*
X24874Y154522D01*
X24884Y154635D01*
X24890Y154748D01*
X24892Y154861D01*
X24890Y154974D01*
X24884Y155087D01*
X24874Y155200D01*
X24860Y155313D01*
X24843Y155425D01*
X24821Y155536D01*
X24796Y155646D01*
X24766Y155756D01*
X24733Y155864D01*
X24696Y155971D01*
X24656Y156077D01*
X24611Y156181D01*
X24563Y156284D01*
X24512Y156385D01*
X24457Y156484D01*
X24399Y156581D01*
X24337Y156676D01*
X24272Y156769D01*
X24204Y156859D01*
X24133Y156947D01*
X24058Y157033D01*
X23981Y157116D01*
X23901Y157196D01*
X23818Y157273D01*
X23732Y157348D01*
X23644Y157419D01*
X23554Y157487D01*
X23461Y157552D01*
X23366Y157614D01*
X23269Y157672D01*
X23170Y157727D01*
X23069Y157778D01*
X22966Y157826D01*
X22862Y157871D01*
X22756Y157911D01*
X22649Y157948D01*
X22541Y157981D01*
X22431Y158011D01*
X22321Y158036D01*
X22210Y158058D01*
X22098Y158075D01*
X21985Y158089D01*
X21872Y158099D01*
X21759Y158105D01*
X21646Y158107D01*
X21646Y158106D02*
X13208Y158106D01*
X13208Y165910D02*
X24892Y165910D01*
X13208Y162664D02*
X13208Y169155D01*
D12*
X192800Y9850D02*
X222800Y9850D01*
X192800Y9850D02*
X162800Y9850D01*
X132800Y9850D01*
X222800Y9850D02*
X222800Y114850D01*
X175800Y114850D01*
X132800Y114850D01*
X132800Y9850D01*
X146177Y69850D02*
X146187Y70626D01*
X146215Y71402D01*
X146263Y72176D01*
X146329Y72950D01*
X146415Y73721D01*
X146519Y74490D01*
X146643Y75256D01*
X146785Y76019D01*
X146945Y76779D01*
X147125Y77534D01*
X147323Y78284D01*
X147539Y79030D01*
X147773Y79770D01*
X148026Y80503D01*
X148296Y81231D01*
X148584Y81952D01*
X148890Y82665D01*
X149213Y83371D01*
X149554Y84068D01*
X149911Y84757D01*
X150285Y85437D01*
X150676Y86107D01*
X151083Y86768D01*
X151506Y87419D01*
X151946Y88059D01*
X152400Y88688D01*
X152870Y89305D01*
X153355Y89911D01*
X153855Y90505D01*
X154369Y91087D01*
X154897Y91655D01*
X155439Y92211D01*
X155995Y92753D01*
X156563Y93281D01*
X157145Y93795D01*
X157739Y94295D01*
X158345Y94780D01*
X158962Y95250D01*
X159591Y95704D01*
X160231Y96144D01*
X160882Y96567D01*
X161543Y96974D01*
X162213Y97365D01*
X162893Y97739D01*
X163582Y98096D01*
X164279Y98437D01*
X164985Y98760D01*
X165698Y99066D01*
X166419Y99354D01*
X167147Y99624D01*
X167880Y99877D01*
X168620Y100111D01*
X169366Y100327D01*
X170116Y100525D01*
X170871Y100705D01*
X171631Y100865D01*
X172394Y101007D01*
X173160Y101131D01*
X173929Y101235D01*
X174700Y101321D01*
X175474Y101387D01*
X176248Y101435D01*
X177024Y101463D01*
X177800Y101473D01*
X178576Y101463D01*
X179352Y101435D01*
X180126Y101387D01*
X180900Y101321D01*
X181671Y101235D01*
X182440Y101131D01*
X183206Y101007D01*
X183969Y100865D01*
X184729Y100705D01*
X185484Y100525D01*
X186234Y100327D01*
X186980Y100111D01*
X187720Y99877D01*
X188453Y99624D01*
X189181Y99354D01*
X189902Y99066D01*
X190615Y98760D01*
X191321Y98437D01*
X192018Y98096D01*
X192707Y97739D01*
X193387Y97365D01*
X194057Y96974D01*
X194718Y96567D01*
X195369Y96144D01*
X196009Y95704D01*
X196638Y95250D01*
X197255Y94780D01*
X197861Y94295D01*
X198455Y93795D01*
X199037Y93281D01*
X199605Y92753D01*
X200161Y92211D01*
X200703Y91655D01*
X201231Y91087D01*
X201745Y90505D01*
X202245Y89911D01*
X202730Y89305D01*
X203200Y88688D01*
X203654Y88059D01*
X204094Y87419D01*
X204517Y86768D01*
X204924Y86107D01*
X205315Y85437D01*
X205689Y84757D01*
X206046Y84068D01*
X206387Y83371D01*
X206710Y82665D01*
X207016Y81952D01*
X207304Y81231D01*
X207574Y80503D01*
X207827Y79770D01*
X208061Y79030D01*
X208277Y78284D01*
X208475Y77534D01*
X208655Y76779D01*
X208815Y76019D01*
X208957Y75256D01*
X209081Y74490D01*
X209185Y73721D01*
X209271Y72950D01*
X209337Y72176D01*
X209385Y71402D01*
X209413Y70626D01*
X209423Y69850D01*
X209413Y69074D01*
X209385Y68298D01*
X209337Y67524D01*
X209271Y66750D01*
X209185Y65979D01*
X209081Y65210D01*
X208957Y64444D01*
X208815Y63681D01*
X208655Y62921D01*
X208475Y62166D01*
X208277Y61416D01*
X208061Y60670D01*
X207827Y59930D01*
X207574Y59197D01*
X207304Y58469D01*
X207016Y57748D01*
X206710Y57035D01*
X206387Y56329D01*
X206046Y55632D01*
X205689Y54943D01*
X205315Y54263D01*
X204924Y53593D01*
X204517Y52932D01*
X204094Y52281D01*
X203654Y51641D01*
X203200Y51012D01*
X202730Y50395D01*
X202245Y49789D01*
X201745Y49195D01*
X201231Y48613D01*
X200703Y48045D01*
X200161Y47489D01*
X199605Y46947D01*
X199037Y46419D01*
X198455Y45905D01*
X197861Y45405D01*
X197255Y44920D01*
X196638Y44450D01*
X196009Y43996D01*
X195369Y43556D01*
X194718Y43133D01*
X194057Y42726D01*
X193387Y42335D01*
X192707Y41961D01*
X192018Y41604D01*
X191321Y41263D01*
X190615Y40940D01*
X189902Y40634D01*
X189181Y40346D01*
X188453Y40076D01*
X187720Y39823D01*
X186980Y39589D01*
X186234Y39373D01*
X185484Y39175D01*
X184729Y38995D01*
X183969Y38835D01*
X183206Y38693D01*
X182440Y38569D01*
X181671Y38465D01*
X180900Y38379D01*
X180126Y38313D01*
X179352Y38265D01*
X178576Y38237D01*
X177800Y38227D01*
X177024Y38237D01*
X176248Y38265D01*
X175474Y38313D01*
X174700Y38379D01*
X173929Y38465D01*
X173160Y38569D01*
X172394Y38693D01*
X171631Y38835D01*
X170871Y38995D01*
X170116Y39175D01*
X169366Y39373D01*
X168620Y39589D01*
X167880Y39823D01*
X167147Y40076D01*
X166419Y40346D01*
X165698Y40634D01*
X164985Y40940D01*
X164279Y41263D01*
X163582Y41604D01*
X162893Y41961D01*
X162213Y42335D01*
X161543Y42726D01*
X160882Y43133D01*
X160231Y43556D01*
X159591Y43996D01*
X158962Y44450D01*
X158345Y44920D01*
X157739Y45405D01*
X157145Y45905D01*
X156563Y46419D01*
X155995Y46947D01*
X155439Y47489D01*
X154897Y48045D01*
X154369Y48613D01*
X153855Y49195D01*
X153355Y49789D01*
X152870Y50395D01*
X152400Y51012D01*
X151946Y51641D01*
X151506Y52281D01*
X151083Y52932D01*
X150676Y53593D01*
X150285Y54263D01*
X149911Y54943D01*
X149554Y55632D01*
X149213Y56329D01*
X148890Y57035D01*
X148584Y57748D01*
X148296Y58469D01*
X148026Y59197D01*
X147773Y59930D01*
X147539Y60670D01*
X147323Y61416D01*
X147125Y62166D01*
X146945Y62921D01*
X146785Y63681D01*
X146643Y64444D01*
X146519Y65210D01*
X146415Y65979D01*
X146329Y66750D01*
X146263Y67524D01*
X146215Y68298D01*
X146187Y69074D01*
X146177Y69850D01*
X192800Y29850D02*
X192800Y9850D01*
X192800Y29850D02*
X162800Y29850D01*
X162800Y9850D01*
X150893Y69850D02*
X150901Y70510D01*
X150925Y71170D01*
X150966Y71829D01*
X151023Y72487D01*
X151095Y73144D01*
X151184Y73798D01*
X151289Y74450D01*
X151410Y75099D01*
X151547Y75745D01*
X151699Y76388D01*
X151868Y77026D01*
X152052Y77661D01*
X152251Y78290D01*
X152466Y78915D01*
X152696Y79534D01*
X152941Y80147D01*
X153201Y80754D01*
X153476Y81354D01*
X153766Y81948D01*
X154070Y82534D01*
X154389Y83112D01*
X154721Y83683D01*
X155068Y84245D01*
X155428Y84799D01*
X155801Y85343D01*
X156188Y85878D01*
X156588Y86404D01*
X157001Y86920D01*
X157426Y87425D01*
X157863Y87920D01*
X158313Y88403D01*
X158774Y88876D01*
X159247Y89337D01*
X159730Y89787D01*
X160225Y90224D01*
X160730Y90649D01*
X161246Y91062D01*
X161772Y91462D01*
X162307Y91849D01*
X162851Y92222D01*
X163405Y92582D01*
X163967Y92929D01*
X164538Y93261D01*
X165116Y93580D01*
X165702Y93884D01*
X166296Y94174D01*
X166896Y94449D01*
X167503Y94709D01*
X168116Y94954D01*
X168735Y95184D01*
X169360Y95399D01*
X169989Y95598D01*
X170624Y95782D01*
X171262Y95951D01*
X171905Y96103D01*
X172551Y96240D01*
X173200Y96361D01*
X173852Y96466D01*
X174506Y96555D01*
X175163Y96627D01*
X175821Y96684D01*
X176480Y96725D01*
X177140Y96749D01*
X177800Y96757D01*
X178460Y96749D01*
X179120Y96725D01*
X179779Y96684D01*
X180437Y96627D01*
X181094Y96555D01*
X181748Y96466D01*
X182400Y96361D01*
X183049Y96240D01*
X183695Y96103D01*
X184338Y95951D01*
X184976Y95782D01*
X185611Y95598D01*
X186240Y95399D01*
X186865Y95184D01*
X187484Y94954D01*
X188097Y94709D01*
X188704Y94449D01*
X189304Y94174D01*
X189898Y93884D01*
X190484Y93580D01*
X191062Y93261D01*
X191633Y92929D01*
X192195Y92582D01*
X192749Y92222D01*
X193293Y91849D01*
X193828Y91462D01*
X194354Y91062D01*
X194870Y90649D01*
X195375Y90224D01*
X195870Y89787D01*
X196353Y89337D01*
X196826Y88876D01*
X197287Y88403D01*
X197737Y87920D01*
X198174Y87425D01*
X198599Y86920D01*
X199012Y86404D01*
X199412Y85878D01*
X199799Y85343D01*
X200172Y84799D01*
X200532Y84245D01*
X200879Y83683D01*
X201211Y83112D01*
X201530Y82534D01*
X201834Y81948D01*
X202124Y81354D01*
X202399Y80754D01*
X202659Y80147D01*
X202904Y79534D01*
X203134Y78915D01*
X203349Y78290D01*
X203548Y77661D01*
X203732Y77026D01*
X203901Y76388D01*
X204053Y75745D01*
X204190Y75099D01*
X204311Y74450D01*
X204416Y73798D01*
X204505Y73144D01*
X204577Y72487D01*
X204634Y71829D01*
X204675Y71170D01*
X204699Y70510D01*
X204707Y69850D01*
X204699Y69190D01*
X204675Y68530D01*
X204634Y67871D01*
X204577Y67213D01*
X204505Y66556D01*
X204416Y65902D01*
X204311Y65250D01*
X204190Y64601D01*
X204053Y63955D01*
X203901Y63312D01*
X203732Y62674D01*
X203548Y62039D01*
X203349Y61410D01*
X203134Y60785D01*
X202904Y60166D01*
X202659Y59553D01*
X202399Y58946D01*
X202124Y58346D01*
X201834Y57752D01*
X201530Y57166D01*
X201211Y56588D01*
X200879Y56017D01*
X200532Y55455D01*
X200172Y54901D01*
X199799Y54357D01*
X199412Y53822D01*
X199012Y53296D01*
X198599Y52780D01*
X198174Y52275D01*
X197737Y51780D01*
X197287Y51297D01*
X196826Y50824D01*
X196353Y50363D01*
X195870Y49913D01*
X195375Y49476D01*
X194870Y49051D01*
X194354Y48638D01*
X193828Y48238D01*
X193293Y47851D01*
X192749Y47478D01*
X192195Y47118D01*
X191633Y46771D01*
X191062Y46439D01*
X190484Y46120D01*
X189898Y45816D01*
X189304Y45526D01*
X188704Y45251D01*
X188097Y44991D01*
X187484Y44746D01*
X186865Y44516D01*
X186240Y44301D01*
X185611Y44102D01*
X184976Y43918D01*
X184338Y43749D01*
X183695Y43597D01*
X183049Y43460D01*
X182400Y43339D01*
X181748Y43234D01*
X181094Y43145D01*
X180437Y43073D01*
X179779Y43016D01*
X179120Y42975D01*
X178460Y42951D01*
X177800Y42943D01*
X177140Y42951D01*
X176480Y42975D01*
X175821Y43016D01*
X175163Y43073D01*
X174506Y43145D01*
X173852Y43234D01*
X173200Y43339D01*
X172551Y43460D01*
X171905Y43597D01*
X171262Y43749D01*
X170624Y43918D01*
X169989Y44102D01*
X169360Y44301D01*
X168735Y44516D01*
X168116Y44746D01*
X167503Y44991D01*
X166896Y45251D01*
X166296Y45526D01*
X165702Y45816D01*
X165116Y46120D01*
X164538Y46439D01*
X163967Y46771D01*
X163405Y47118D01*
X162851Y47478D01*
X162307Y47851D01*
X161772Y48238D01*
X161246Y48638D01*
X160730Y49051D01*
X160225Y49476D01*
X159730Y49913D01*
X159247Y50363D01*
X158774Y50824D01*
X158313Y51297D01*
X157863Y51780D01*
X157426Y52275D01*
X157001Y52780D01*
X156588Y53296D01*
X156188Y53822D01*
X155801Y54357D01*
X155428Y54901D01*
X155068Y55455D01*
X154721Y56017D01*
X154389Y56588D01*
X154070Y57166D01*
X153766Y57752D01*
X153476Y58346D01*
X153201Y58946D01*
X152941Y59553D01*
X152696Y60166D01*
X152466Y60785D01*
X152251Y61410D01*
X152052Y62039D01*
X151868Y62674D01*
X151699Y63312D01*
X151547Y63955D01*
X151410Y64601D01*
X151289Y65250D01*
X151184Y65902D01*
X151095Y66556D01*
X151023Y67213D01*
X150966Y67871D01*
X150925Y68530D01*
X150901Y69190D01*
X150893Y69850D01*
X179800Y115850D02*
X179800Y136850D01*
X175800Y136850D01*
X175800Y114850D01*
D10*
X203708Y121158D02*
X215392Y121158D01*
X203708Y121158D02*
X203708Y124404D01*
X203710Y124517D01*
X203716Y124630D01*
X203726Y124743D01*
X203740Y124856D01*
X203757Y124968D01*
X203779Y125079D01*
X203804Y125189D01*
X203834Y125299D01*
X203867Y125407D01*
X203904Y125514D01*
X203944Y125620D01*
X203989Y125724D01*
X204037Y125827D01*
X204088Y125928D01*
X204143Y126027D01*
X204201Y126124D01*
X204263Y126219D01*
X204328Y126312D01*
X204396Y126402D01*
X204467Y126490D01*
X204542Y126576D01*
X204619Y126659D01*
X204699Y126739D01*
X204782Y126816D01*
X204868Y126891D01*
X204956Y126962D01*
X205046Y127030D01*
X205139Y127095D01*
X205234Y127157D01*
X205331Y127215D01*
X205430Y127270D01*
X205531Y127321D01*
X205634Y127369D01*
X205738Y127414D01*
X205844Y127454D01*
X205951Y127491D01*
X206059Y127524D01*
X206169Y127554D01*
X206279Y127579D01*
X206390Y127601D01*
X206502Y127618D01*
X206615Y127632D01*
X206728Y127642D01*
X206841Y127648D01*
X206954Y127650D01*
X207067Y127648D01*
X207180Y127642D01*
X207293Y127632D01*
X207406Y127618D01*
X207518Y127601D01*
X207629Y127579D01*
X207739Y127554D01*
X207849Y127524D01*
X207957Y127491D01*
X208064Y127454D01*
X208170Y127414D01*
X208274Y127369D01*
X208377Y127321D01*
X208478Y127270D01*
X208577Y127215D01*
X208674Y127157D01*
X208769Y127095D01*
X208862Y127030D01*
X208952Y126962D01*
X209040Y126891D01*
X209126Y126816D01*
X209209Y126739D01*
X209289Y126659D01*
X209366Y126576D01*
X209441Y126490D01*
X209512Y126402D01*
X209580Y126312D01*
X209645Y126219D01*
X209707Y126124D01*
X209765Y126027D01*
X209820Y125928D01*
X209871Y125827D01*
X209919Y125724D01*
X209964Y125620D01*
X210004Y125514D01*
X210041Y125407D01*
X210074Y125299D01*
X210104Y125189D01*
X210129Y125079D01*
X210151Y124968D01*
X210168Y124856D01*
X210182Y124743D01*
X210192Y124630D01*
X210198Y124517D01*
X210200Y124404D01*
X210199Y124404D02*
X210199Y121158D01*
X210199Y125053D02*
X215392Y127649D01*
X216690Y132020D02*
X216690Y137213D01*
X212146Y141658D02*
X206954Y141658D01*
X206841Y141660D01*
X206728Y141666D01*
X206615Y141676D01*
X206502Y141690D01*
X206390Y141707D01*
X206279Y141729D01*
X206169Y141754D01*
X206059Y141784D01*
X205951Y141817D01*
X205844Y141854D01*
X205738Y141894D01*
X205634Y141939D01*
X205531Y141987D01*
X205430Y142038D01*
X205331Y142093D01*
X205234Y142151D01*
X205139Y142213D01*
X205046Y142278D01*
X204956Y142346D01*
X204868Y142417D01*
X204782Y142492D01*
X204699Y142569D01*
X204619Y142649D01*
X204542Y142732D01*
X204467Y142818D01*
X204396Y142906D01*
X204328Y142996D01*
X204263Y143089D01*
X204201Y143184D01*
X204143Y143281D01*
X204088Y143380D01*
X204037Y143481D01*
X203989Y143584D01*
X203944Y143688D01*
X203904Y143794D01*
X203867Y143901D01*
X203834Y144009D01*
X203804Y144119D01*
X203779Y144229D01*
X203757Y144340D01*
X203740Y144452D01*
X203726Y144565D01*
X203716Y144678D01*
X203710Y144791D01*
X203708Y144904D01*
X203710Y145017D01*
X203716Y145130D01*
X203726Y145243D01*
X203740Y145356D01*
X203757Y145468D01*
X203779Y145579D01*
X203804Y145689D01*
X203834Y145799D01*
X203867Y145907D01*
X203904Y146014D01*
X203944Y146120D01*
X203989Y146224D01*
X204037Y146327D01*
X204088Y146428D01*
X204143Y146527D01*
X204201Y146624D01*
X204263Y146719D01*
X204328Y146812D01*
X204396Y146902D01*
X204467Y146990D01*
X204542Y147076D01*
X204619Y147159D01*
X204699Y147239D01*
X204782Y147316D01*
X204868Y147391D01*
X204956Y147462D01*
X205046Y147530D01*
X205139Y147595D01*
X205234Y147657D01*
X205331Y147715D01*
X205430Y147770D01*
X205531Y147821D01*
X205634Y147869D01*
X205738Y147914D01*
X205844Y147954D01*
X205951Y147991D01*
X206059Y148024D01*
X206169Y148054D01*
X206279Y148079D01*
X206390Y148101D01*
X206502Y148118D01*
X206615Y148132D01*
X206728Y148142D01*
X206841Y148148D01*
X206954Y148150D01*
X206954Y148149D02*
X212146Y148149D01*
X212146Y148150D02*
X212259Y148148D01*
X212372Y148142D01*
X212485Y148132D01*
X212598Y148118D01*
X212710Y148101D01*
X212821Y148079D01*
X212931Y148054D01*
X213041Y148024D01*
X213149Y147991D01*
X213256Y147954D01*
X213362Y147914D01*
X213466Y147869D01*
X213569Y147821D01*
X213670Y147770D01*
X213769Y147715D01*
X213866Y147657D01*
X213961Y147595D01*
X214054Y147530D01*
X214144Y147462D01*
X214232Y147391D01*
X214318Y147316D01*
X214401Y147239D01*
X214481Y147159D01*
X214558Y147076D01*
X214633Y146990D01*
X214704Y146902D01*
X214772Y146812D01*
X214837Y146719D01*
X214899Y146624D01*
X214957Y146527D01*
X215012Y146428D01*
X215063Y146327D01*
X215111Y146224D01*
X215156Y146120D01*
X215196Y146014D01*
X215233Y145907D01*
X215266Y145799D01*
X215296Y145689D01*
X215321Y145579D01*
X215343Y145468D01*
X215360Y145356D01*
X215374Y145243D01*
X215384Y145130D01*
X215390Y145017D01*
X215392Y144904D01*
X215390Y144791D01*
X215384Y144678D01*
X215374Y144565D01*
X215360Y144452D01*
X215343Y144340D01*
X215321Y144229D01*
X215296Y144119D01*
X215266Y144009D01*
X215233Y143901D01*
X215196Y143794D01*
X215156Y143688D01*
X215111Y143584D01*
X215063Y143481D01*
X215012Y143380D01*
X214957Y143281D01*
X214899Y143184D01*
X214837Y143089D01*
X214772Y142996D01*
X214704Y142906D01*
X214633Y142818D01*
X214558Y142732D01*
X214481Y142649D01*
X214401Y142569D01*
X214318Y142492D01*
X214232Y142417D01*
X214144Y142346D01*
X214054Y142278D01*
X213961Y142213D01*
X213866Y142151D01*
X213769Y142093D01*
X213670Y142038D01*
X213569Y141987D01*
X213466Y141939D01*
X213362Y141894D01*
X213256Y141854D01*
X213149Y141817D01*
X213041Y141784D01*
X212931Y141754D01*
X212821Y141729D01*
X212710Y141707D01*
X212598Y141690D01*
X212485Y141676D01*
X212372Y141666D01*
X212259Y141660D01*
X212146Y141658D01*
X212146Y153469D02*
X203708Y153469D01*
X212146Y153469D02*
X212259Y153471D01*
X212372Y153477D01*
X212485Y153487D01*
X212598Y153501D01*
X212710Y153518D01*
X212821Y153540D01*
X212931Y153565D01*
X213041Y153595D01*
X213149Y153628D01*
X213256Y153665D01*
X213362Y153705D01*
X213466Y153750D01*
X213569Y153798D01*
X213670Y153849D01*
X213769Y153904D01*
X213866Y153962D01*
X213961Y154024D01*
X214054Y154089D01*
X214144Y154157D01*
X214232Y154228D01*
X214318Y154303D01*
X214401Y154380D01*
X214481Y154460D01*
X214558Y154543D01*
X214633Y154629D01*
X214704Y154717D01*
X214772Y154807D01*
X214837Y154900D01*
X214899Y154995D01*
X214957Y155092D01*
X215012Y155191D01*
X215063Y155292D01*
X215111Y155395D01*
X215156Y155499D01*
X215196Y155605D01*
X215233Y155712D01*
X215266Y155820D01*
X215296Y155930D01*
X215321Y156040D01*
X215343Y156151D01*
X215360Y156263D01*
X215374Y156376D01*
X215384Y156489D01*
X215390Y156602D01*
X215392Y156715D01*
X215390Y156828D01*
X215384Y156941D01*
X215374Y157054D01*
X215360Y157167D01*
X215343Y157279D01*
X215321Y157390D01*
X215296Y157500D01*
X215266Y157610D01*
X215233Y157718D01*
X215196Y157825D01*
X215156Y157931D01*
X215111Y158035D01*
X215063Y158138D01*
X215012Y158239D01*
X214957Y158338D01*
X214899Y158435D01*
X214837Y158530D01*
X214772Y158623D01*
X214704Y158713D01*
X214633Y158801D01*
X214558Y158887D01*
X214481Y158970D01*
X214401Y159050D01*
X214318Y159127D01*
X214232Y159202D01*
X214144Y159273D01*
X214054Y159341D01*
X213961Y159406D01*
X213866Y159468D01*
X213769Y159526D01*
X213670Y159581D01*
X213569Y159632D01*
X213466Y159680D01*
X213362Y159725D01*
X213256Y159765D01*
X213149Y159802D01*
X213041Y159835D01*
X212931Y159865D01*
X212821Y159890D01*
X212710Y159912D01*
X212598Y159929D01*
X212485Y159943D01*
X212372Y159953D01*
X212259Y159959D01*
X212146Y159961D01*
X212146Y159960D02*
X203708Y159960D01*
X203708Y167764D02*
X215392Y167764D01*
X203708Y164518D02*
X203708Y171009D01*
M02*
