G04 EAGLE Gerber RS-274X export*
G75*
%MOMM*%
%FSLAX34Y34*%
%LPD*%
%INBottom Copper*%
%IPPOS*%
%AMOC8*
5,1,8,0,0,1.08239X$1,22.5*%
G01*
%ADD10C,1.524000*%
%ADD11C,1.650000*%

G36*
X45661Y10173D02*
X45661Y10173D01*
X45787Y10176D01*
X45861Y10193D01*
X45936Y10201D01*
X46057Y10238D01*
X46180Y10266D01*
X46249Y10297D01*
X46321Y10319D01*
X46432Y10379D01*
X46547Y10431D01*
X46609Y10475D01*
X46675Y10511D01*
X46772Y10591D01*
X46875Y10665D01*
X46926Y10720D01*
X46984Y10768D01*
X47063Y10867D01*
X47150Y10959D01*
X47189Y11023D01*
X47237Y11082D01*
X47295Y11194D01*
X47361Y11302D01*
X47387Y11373D01*
X47422Y11439D01*
X47457Y11561D01*
X47501Y11679D01*
X47513Y11754D01*
X47534Y11826D01*
X47544Y11952D01*
X47563Y12077D01*
X47560Y12152D01*
X47566Y12228D01*
X47552Y12353D01*
X47546Y12479D01*
X47528Y12553D01*
X47519Y12627D01*
X47480Y12747D01*
X47450Y12870D01*
X47418Y12938D01*
X47395Y13010D01*
X47333Y13120D01*
X47279Y13235D01*
X47234Y13295D01*
X47197Y13361D01*
X47114Y13456D01*
X47039Y13558D01*
X46983Y13608D01*
X46934Y13665D01*
X46834Y13743D01*
X46740Y13828D01*
X46665Y13874D01*
X46615Y13912D01*
X46550Y13945D01*
X46458Y14002D01*
X45144Y14671D01*
X43770Y15669D01*
X42569Y16870D01*
X41571Y18244D01*
X40800Y19758D01*
X40347Y21151D01*
X50082Y21151D01*
X50100Y21152D01*
X50117Y21151D01*
X50300Y21172D01*
X50482Y21191D01*
X50499Y21196D01*
X50517Y21198D01*
X50692Y21255D01*
X50792Y21286D01*
X50799Y21282D01*
X50977Y21234D01*
X51152Y21184D01*
X51170Y21182D01*
X51187Y21178D01*
X51518Y21151D01*
X61253Y21151D01*
X60800Y19758D01*
X60029Y18244D01*
X59031Y16870D01*
X57830Y15669D01*
X56456Y14671D01*
X55142Y14002D01*
X55036Y13934D01*
X54925Y13873D01*
X54867Y13825D01*
X54804Y13784D01*
X54713Y13697D01*
X54616Y13616D01*
X54568Y13557D01*
X54514Y13504D01*
X54443Y13400D01*
X54363Y13302D01*
X54329Y13235D01*
X54286Y13173D01*
X54236Y13056D01*
X54178Y12945D01*
X54157Y12872D01*
X54127Y12803D01*
X54101Y12679D01*
X54066Y12558D01*
X54060Y12483D01*
X54045Y12409D01*
X54044Y12282D01*
X54034Y12156D01*
X54042Y12081D01*
X54042Y12006D01*
X54066Y11882D01*
X54081Y11757D01*
X54104Y11685D01*
X54118Y11611D01*
X54166Y11494D01*
X54205Y11374D01*
X54242Y11308D01*
X54271Y11238D01*
X54341Y11133D01*
X54403Y11023D01*
X54453Y10966D01*
X54494Y10903D01*
X54584Y10814D01*
X54666Y10718D01*
X54726Y10672D01*
X54779Y10619D01*
X54885Y10549D01*
X54985Y10472D01*
X55052Y10438D01*
X55115Y10396D01*
X55232Y10349D01*
X55345Y10292D01*
X55418Y10273D01*
X55488Y10244D01*
X55612Y10221D01*
X55734Y10188D01*
X55821Y10181D01*
X55883Y10169D01*
X55957Y10170D01*
X56065Y10161D01*
X223335Y10161D01*
X223461Y10173D01*
X223587Y10176D01*
X223661Y10193D01*
X223736Y10201D01*
X223857Y10238D01*
X223980Y10266D01*
X224049Y10297D01*
X224121Y10319D01*
X224232Y10379D01*
X224347Y10431D01*
X224409Y10475D01*
X224475Y10511D01*
X224572Y10591D01*
X224675Y10665D01*
X224726Y10720D01*
X224784Y10768D01*
X224863Y10867D01*
X224950Y10959D01*
X224989Y11023D01*
X225037Y11082D01*
X225095Y11194D01*
X225161Y11302D01*
X225187Y11373D01*
X225222Y11439D01*
X225257Y11561D01*
X225301Y11679D01*
X225313Y11754D01*
X225334Y11826D01*
X225344Y11952D01*
X225363Y12077D01*
X225360Y12152D01*
X225366Y12228D01*
X225352Y12353D01*
X225346Y12479D01*
X225328Y12553D01*
X225319Y12627D01*
X225280Y12747D01*
X225250Y12870D01*
X225218Y12938D01*
X225195Y13010D01*
X225133Y13120D01*
X225079Y13235D01*
X225034Y13295D01*
X224997Y13361D01*
X224914Y13456D01*
X224839Y13558D01*
X224783Y13608D01*
X224734Y13665D01*
X224634Y13743D01*
X224540Y13828D01*
X224465Y13874D01*
X224415Y13912D01*
X224350Y13945D01*
X224258Y14002D01*
X222944Y14671D01*
X221570Y15669D01*
X220369Y16870D01*
X219371Y18244D01*
X218600Y19758D01*
X218147Y21151D01*
X227882Y21151D01*
X227900Y21152D01*
X227917Y21151D01*
X228100Y21172D01*
X228282Y21191D01*
X228299Y21196D01*
X228317Y21198D01*
X228492Y21255D01*
X228592Y21286D01*
X228599Y21282D01*
X228777Y21234D01*
X228952Y21184D01*
X228970Y21182D01*
X228987Y21178D01*
X229318Y21151D01*
X239053Y21151D01*
X238600Y19758D01*
X237829Y18244D01*
X236831Y16870D01*
X235630Y15669D01*
X234256Y14671D01*
X232942Y14002D01*
X232836Y13934D01*
X232725Y13873D01*
X232667Y13825D01*
X232604Y13784D01*
X232513Y13697D01*
X232416Y13616D01*
X232368Y13557D01*
X232314Y13504D01*
X232243Y13400D01*
X232163Y13302D01*
X232129Y13235D01*
X232086Y13173D01*
X232036Y13056D01*
X231978Y12945D01*
X231957Y12872D01*
X231927Y12803D01*
X231901Y12679D01*
X231866Y12558D01*
X231860Y12483D01*
X231845Y12409D01*
X231844Y12282D01*
X231834Y12156D01*
X231842Y12081D01*
X231842Y12006D01*
X231866Y11882D01*
X231881Y11757D01*
X231904Y11685D01*
X231918Y11611D01*
X231966Y11494D01*
X232005Y11374D01*
X232042Y11308D01*
X232071Y11238D01*
X232141Y11133D01*
X232203Y11023D01*
X232253Y10966D01*
X232294Y10903D01*
X232384Y10814D01*
X232466Y10718D01*
X232526Y10672D01*
X232579Y10619D01*
X232685Y10549D01*
X232785Y10472D01*
X232852Y10438D01*
X232915Y10396D01*
X233032Y10349D01*
X233145Y10292D01*
X233218Y10273D01*
X233288Y10244D01*
X233412Y10221D01*
X233534Y10188D01*
X233621Y10181D01*
X233683Y10169D01*
X233757Y10170D01*
X233865Y10161D01*
X267208Y10161D01*
X267226Y10163D01*
X267244Y10161D01*
X267426Y10182D01*
X267609Y10201D01*
X267626Y10206D01*
X267643Y10208D01*
X267818Y10265D01*
X267994Y10319D01*
X268009Y10327D01*
X268026Y10333D01*
X268186Y10423D01*
X268348Y10511D01*
X268361Y10522D01*
X268377Y10531D01*
X268516Y10651D01*
X268657Y10768D01*
X268668Y10782D01*
X268682Y10794D01*
X268794Y10939D01*
X268909Y11082D01*
X268917Y11098D01*
X268928Y11112D01*
X269010Y11277D01*
X269095Y11439D01*
X269100Y11456D01*
X269108Y11472D01*
X269155Y11651D01*
X269206Y11826D01*
X269208Y11844D01*
X269212Y11861D01*
X269239Y12192D01*
X269239Y210058D01*
X269237Y210076D01*
X269239Y210094D01*
X269218Y210276D01*
X269199Y210459D01*
X269194Y210476D01*
X269192Y210493D01*
X269135Y210668D01*
X269081Y210844D01*
X269073Y210859D01*
X269067Y210876D01*
X268977Y211036D01*
X268889Y211198D01*
X268878Y211211D01*
X268869Y211227D01*
X268749Y211366D01*
X268632Y211507D01*
X268618Y211518D01*
X268606Y211532D01*
X268461Y211644D01*
X268318Y211759D01*
X268302Y211767D01*
X268288Y211778D01*
X268123Y211860D01*
X267961Y211945D01*
X267944Y211950D01*
X267928Y211958D01*
X267749Y212005D01*
X267574Y212056D01*
X267556Y212058D01*
X267539Y212062D01*
X267208Y212089D01*
X12192Y212089D01*
X12174Y212087D01*
X12156Y212089D01*
X11974Y212068D01*
X11791Y212049D01*
X11774Y212044D01*
X11757Y212042D01*
X11582Y211985D01*
X11406Y211931D01*
X11391Y211923D01*
X11374Y211917D01*
X11214Y211827D01*
X11052Y211739D01*
X11039Y211728D01*
X11023Y211719D01*
X10884Y211599D01*
X10743Y211482D01*
X10732Y211468D01*
X10718Y211456D01*
X10606Y211311D01*
X10491Y211168D01*
X10483Y211152D01*
X10472Y211138D01*
X10390Y210973D01*
X10305Y210811D01*
X10300Y210794D01*
X10292Y210778D01*
X10245Y210599D01*
X10194Y210424D01*
X10192Y210406D01*
X10188Y210389D01*
X10161Y210058D01*
X10161Y12192D01*
X10163Y12174D01*
X10161Y12156D01*
X10182Y11974D01*
X10201Y11791D01*
X10206Y11774D01*
X10208Y11757D01*
X10265Y11582D01*
X10319Y11406D01*
X10327Y11391D01*
X10333Y11374D01*
X10423Y11214D01*
X10511Y11052D01*
X10522Y11039D01*
X10531Y11023D01*
X10651Y10884D01*
X10768Y10743D01*
X10782Y10732D01*
X10794Y10718D01*
X10939Y10606D01*
X11082Y10491D01*
X11098Y10483D01*
X11112Y10472D01*
X11277Y10390D01*
X11439Y10305D01*
X11456Y10300D01*
X11472Y10292D01*
X11651Y10245D01*
X11826Y10194D01*
X11844Y10192D01*
X11861Y10188D01*
X12192Y10161D01*
X45535Y10161D01*
X45661Y10173D01*
G37*
%LPC*%
G36*
X112481Y167385D02*
X112481Y167385D01*
X109120Y168777D01*
X106547Y171350D01*
X105155Y174711D01*
X105155Y193589D01*
X106547Y196950D01*
X109120Y199523D01*
X112481Y200915D01*
X116119Y200915D01*
X119480Y199523D01*
X122053Y196950D01*
X123445Y193589D01*
X123445Y174711D01*
X122053Y171350D01*
X119480Y168777D01*
X116119Y167385D01*
X112481Y167385D01*
G37*
%LPD*%
%LPC*%
G36*
X163281Y167385D02*
X163281Y167385D01*
X159920Y168777D01*
X157347Y171350D01*
X155955Y174711D01*
X155955Y193589D01*
X157347Y196950D01*
X159920Y199523D01*
X163281Y200915D01*
X166919Y200915D01*
X170280Y199523D01*
X172853Y196950D01*
X174245Y193589D01*
X174245Y174711D01*
X172853Y171350D01*
X170280Y168777D01*
X166919Y167385D01*
X163281Y167385D01*
G37*
%LPD*%
%LPC*%
G36*
X226656Y129125D02*
X226656Y129125D01*
X223063Y130613D01*
X220313Y133363D01*
X218825Y136956D01*
X218825Y140844D01*
X220313Y144437D01*
X223063Y147187D01*
X226656Y148675D01*
X230544Y148675D01*
X234137Y147187D01*
X236887Y144437D01*
X238375Y140844D01*
X238375Y136956D01*
X236887Y133363D01*
X234137Y130613D01*
X230544Y129125D01*
X226656Y129125D01*
G37*
%LPD*%
%LPC*%
G36*
X48856Y129125D02*
X48856Y129125D01*
X45263Y130613D01*
X42513Y133363D01*
X41025Y136956D01*
X41025Y140844D01*
X42513Y144437D01*
X45263Y147187D01*
X48856Y148675D01*
X52744Y148675D01*
X56337Y147187D01*
X59087Y144437D01*
X60575Y140844D01*
X60575Y136956D01*
X59087Y133363D01*
X56337Y130613D01*
X52744Y129125D01*
X48856Y129125D01*
G37*
%LPD*%
%LPC*%
G36*
X226656Y44125D02*
X226656Y44125D01*
X223063Y45613D01*
X220313Y48363D01*
X218825Y51956D01*
X218825Y55844D01*
X220313Y59437D01*
X223063Y62187D01*
X226656Y63675D01*
X230544Y63675D01*
X234137Y62187D01*
X236887Y59437D01*
X238375Y55844D01*
X238375Y51956D01*
X236887Y48363D01*
X234137Y45613D01*
X231531Y44534D01*
X230544Y44125D01*
X226656Y44125D01*
G37*
%LPD*%
%LPC*%
G36*
X48856Y44125D02*
X48856Y44125D01*
X45263Y45613D01*
X42513Y48363D01*
X41025Y51956D01*
X41025Y55844D01*
X42513Y59437D01*
X45263Y62187D01*
X48856Y63675D01*
X52744Y63675D01*
X56337Y62187D01*
X59087Y59437D01*
X60575Y55844D01*
X60575Y51956D01*
X59087Y48363D01*
X56337Y45613D01*
X53731Y44534D01*
X52744Y44125D01*
X48856Y44125D01*
G37*
%LPD*%
%LPC*%
G36*
X142239Y186689D02*
X142239Y186689D01*
X142239Y201629D01*
X143600Y201186D01*
X145025Y200460D01*
X146319Y199520D01*
X147450Y198389D01*
X148390Y197095D01*
X149116Y195670D01*
X149611Y194149D01*
X149861Y192570D01*
X149861Y186689D01*
X142239Y186689D01*
G37*
%LPD*%
%LPC*%
G36*
X142239Y181611D02*
X142239Y181611D01*
X149861Y181611D01*
X149861Y175730D01*
X149611Y174151D01*
X149116Y172630D01*
X148390Y171205D01*
X147450Y169911D01*
X146319Y168780D01*
X145025Y167840D01*
X143600Y167114D01*
X142239Y166671D01*
X142239Y181611D01*
G37*
%LPD*%
%LPC*%
G36*
X129539Y186689D02*
X129539Y186689D01*
X129539Y192570D01*
X129789Y194149D01*
X130284Y195670D01*
X131010Y197095D01*
X131950Y198389D01*
X133081Y199520D01*
X134375Y200460D01*
X135800Y201186D01*
X137161Y201629D01*
X137161Y186689D01*
X129539Y186689D01*
G37*
%LPD*%
%LPC*%
G36*
X135800Y167114D02*
X135800Y167114D01*
X134375Y167840D01*
X133081Y168780D01*
X131950Y169911D01*
X131010Y171205D01*
X130284Y172630D01*
X129789Y174151D01*
X129539Y175730D01*
X129539Y181611D01*
X137161Y181611D01*
X137161Y166671D01*
X135800Y167114D01*
G37*
%LPD*%
%LPC*%
G36*
X231349Y26649D02*
X231349Y26649D01*
X231349Y34353D01*
X232742Y33900D01*
X234256Y33129D01*
X235630Y32131D01*
X236831Y30930D01*
X237829Y29556D01*
X238600Y28042D01*
X239053Y26649D01*
X231349Y26649D01*
G37*
%LPD*%
%LPC*%
G36*
X53549Y26649D02*
X53549Y26649D01*
X53549Y34353D01*
X54942Y33900D01*
X56456Y33129D01*
X57830Y32131D01*
X59031Y30930D01*
X60029Y29556D01*
X60800Y28042D01*
X61253Y26649D01*
X53549Y26649D01*
G37*
%LPD*%
%LPC*%
G36*
X218147Y26649D02*
X218147Y26649D01*
X218600Y28042D01*
X219371Y29556D01*
X220369Y30930D01*
X221570Y32131D01*
X222944Y33129D01*
X224458Y33900D01*
X225851Y34353D01*
X225851Y26649D01*
X218147Y26649D01*
G37*
%LPD*%
%LPC*%
G36*
X40347Y26649D02*
X40347Y26649D01*
X40800Y28042D01*
X41571Y29556D01*
X42569Y30930D01*
X43770Y32131D01*
X45144Y33129D01*
X46658Y33900D01*
X48051Y34353D01*
X48051Y26649D01*
X40347Y26649D01*
G37*
%LPD*%
D10*
X165100Y191770D02*
X165100Y176530D01*
X139700Y176530D02*
X139700Y191770D01*
X114300Y191770D02*
X114300Y176530D01*
D11*
X50800Y138900D03*
X50800Y53900D03*
X50800Y23900D03*
X228600Y138900D03*
X228600Y53900D03*
X228600Y23900D03*
M02*
